<svg xmlns="http://www.w3.org/2000/svg" xmlns:rdkit="http://www.rdkit.org/xml" xmlns:xlink="http://www.w3.org/1999/xlink" version="1.1" baseProfile="full" xml:space="preserve" width="300px" height="300px" viewBox="0 0 300 300">
<!-- END OF HEADER -->
<rect style="opacity:1.0;fill:#FFFFFF;stroke:none" width="300.0" height="300.0" x="0.0" y="0.0"> </rect>
<path class="bond-0 atom-0 atom-1" d="M 149.5,177.0 L 148.9,177.4" style="fill:none;fill-rule:evenodd;stroke:#000000;stroke-width:2.0px;stroke-linecap:butt;stroke-linejoin:miter;stroke-opacity:1"/>
<path class="bond-0 atom-0 atom-1" d="M 148.9,177.4 L 148.3,177.7" style="fill:none;fill-rule:evenodd;stroke:#FF0000;stroke-width:2.0px;stroke-linecap:butt;stroke-linejoin:miter;stroke-opacity:1"/>
<path class="bond-1 atom-0 atom-2" d="M 169.2,143.5 L 154.3,117.8" style="fill:none;fill-rule:evenodd;stroke:#000000;stroke-width:2.0px;stroke-linecap:butt;stroke-linejoin:miter;stroke-opacity:1"/>
<path class="bond-2 atom-0 atom-3" d="M 188.3,143.5 L 203.1,117.8" style="fill:none;fill-rule:evenodd;stroke:#000000;stroke-width:2.0px;stroke-linecap:butt;stroke-linejoin:miter;stroke-opacity:1"/>
<path class="bond-3 atom-0 atom-4" d="M 208.0,177.0 L 224.3,186.3" style="fill:none;fill-rule:evenodd;stroke:#000000;stroke-width:2.0px;stroke-linecap:butt;stroke-linejoin:miter;stroke-opacity:1"/>
<path class="bond-4 atom-1 atom-5" d="M 91.2,177.6 L 82.0,172.3" style="fill:none;fill-rule:evenodd;stroke:#FF0000;stroke-width:2.0px;stroke-linecap:butt;stroke-linejoin:miter;stroke-opacity:1"/>
<path class="bond-4 atom-1 atom-5" d="M 82.0,172.3 L 72.9,167.0" style="fill:none;fill-rule:evenodd;stroke:#000000;stroke-width:2.0px;stroke-linecap:butt;stroke-linejoin:miter;stroke-opacity:1"/>
<path class="atom-0" d="M 151.6 160.2 Q 151.6 153.2, 154.9 149.5 Q 158.2 145.8, 164.5 145.8 Q 170.3 145.8, 173.5 149.9 L 170.8 152.0 Q 168.5 149.0, 164.5 149.0 Q 160.2 149.0, 157.9 151.9 Q 155.7 154.8, 155.7 160.2 Q 155.7 165.8, 158.0 168.7 Q 160.4 171.6, 164.9 171.6 Q 168.1 171.6, 171.7 169.7 L 172.8 172.7 Q 171.3 173.6, 169.1 174.2 Q 166.9 174.8, 164.4 174.8 Q 158.2 174.8, 154.9 171.0 Q 151.6 167.2, 151.6 160.2 " fill="#000000"/>
<path class="atom-0" d="M 176.6 169.7 L 180.6 169.7 L 180.6 173.7 L 176.6 173.7 L 176.6 169.7 M 176.6 156.0 L 180.6 156.0 L 180.6 160.0 L 176.6 160.0 L 176.6 156.0 " fill="#000000"/>
<path class="atom-0" d="M 195.5 174.7 Q 190.3 174.7, 187.7 170.9 Q 185.2 167.0, 185.2 160.2 Q 185.2 153.4, 187.7 149.6 Q 190.3 145.8, 195.5 145.8 Q 200.8 145.8, 203.3 149.6 Q 205.9 153.4, 205.9 160.2 Q 205.9 167.0, 203.3 170.9 Q 200.7 174.7, 195.5 174.7 M 195.5 171.5 Q 198.6 171.5, 200.2 168.7 Q 201.9 165.8, 201.9 160.2 Q 201.9 154.6, 200.2 151.8 Q 198.6 149.0, 195.5 149.0 Q 192.5 149.0, 190.8 151.8 Q 189.2 154.6, 189.2 160.2 Q 189.2 165.8, 190.8 168.7 Q 192.5 171.5, 195.5 171.5 " fill="#000000"/>
<path class="atom-1" d="M 92.3 194.2 Q 92.3 187.4, 95.7 183.6 Q 99.0 179.8, 105.3 179.8 Q 111.6 179.8, 115.0 183.6 Q 118.3 187.4, 118.3 194.2 Q 118.3 201.1, 114.9 205.0 Q 111.5 208.9, 105.3 208.9 Q 99.1 208.9, 95.7 205.0 Q 92.3 201.1, 92.3 194.2 M 105.3 205.7 Q 109.6 205.7, 112.0 202.8 Q 114.3 199.9, 114.3 194.2 Q 114.3 188.6, 112.0 185.8 Q 109.6 183.0, 105.3 183.0 Q 101.0 183.0, 98.6 185.8 Q 96.3 188.6, 96.3 194.2 Q 96.3 199.9, 98.6 202.8 Q 101.0 205.7, 105.3 205.7 " fill="#FF0000"/>
<path class="atom-1" d="M 121.9 203.8 L 125.9 203.8 L 125.9 207.8 L 121.9 207.8 L 121.9 203.8 M 121.9 190.0 L 125.9 190.0 L 125.9 194.0 L 121.9 194.0 L 121.9 190.0 " fill="#FF0000"/>
<path class="atom-1" d="M 132.0 205.2 L 138.2 205.2 L 138.2 184.1 L 131.4 186.2 L 130.5 183.8 L 139.1 180.0 L 142.0 180.4 L 142.0 205.2 L 147.5 205.2 L 147.5 208.4 L 132.0 208.4 L 132.0 205.2 " fill="#FF0000"/>
<path class="atom-2" d="M 99.6 87.3 L 103.4 87.3 L 103.4 99.3 L 117.9 99.3 L 117.9 87.3 L 121.8 87.3 L 121.8 115.6 L 117.9 115.6 L 117.9 102.5 L 103.4 102.5 L 103.4 115.6 L 99.6 115.6 L 99.6 87.3 " fill="#000000"/>
<path class="atom-2" d="M 126.7 110.9 L 130.7 110.9 L 130.7 114.9 L 126.7 114.9 L 126.7 110.9 M 126.7 97.1 L 130.7 97.1 L 130.7 101.1 L 126.7 101.1 L 126.7 97.1 " fill="#000000"/>
<path class="atom-2" d="M 135.3 92.6 Q 136.3 89.9, 138.8 88.5 Q 141.3 86.9, 144.7 86.9 Q 149.0 86.9, 151.4 89.3 Q 153.8 91.6, 153.8 95.7 Q 153.8 99.9, 150.7 103.8 Q 147.6 107.7, 141.2 112.4 L 154.3 112.4 L 154.3 115.6 L 135.2 115.6 L 135.2 112.9 Q 140.5 109.1, 143.6 106.3 Q 146.7 103.5, 148.3 101.0 Q 149.8 98.5, 149.8 95.9 Q 149.8 93.2, 148.4 91.7 Q 147.1 90.1, 144.7 90.1 Q 142.4 90.1, 140.9 91.1 Q 139.4 92.0, 138.3 94.0 L 135.3 92.6 " fill="#000000"/>
<path class="atom-3" d="M 201.6 87.2 L 205.4 87.2 L 205.4 99.2 L 219.9 99.2 L 219.9 87.2 L 223.8 87.2 L 223.8 115.5 L 219.9 115.5 L 219.9 102.4 L 205.4 102.4 L 205.4 115.5 L 201.6 115.5 L 201.6 87.2 " fill="#000000"/>
<path class="atom-3" d="M 228.7 110.8 L 232.7 110.8 L 232.7 114.8 L 228.7 114.8 L 228.7 110.8 M 228.7 97.1 L 232.7 97.1 L 232.7 101.1 L 228.7 101.1 L 228.7 97.1 " fill="#000000"/>
<path class="atom-3" d="M 250.8 100.6 Q 253.5 101.4, 254.9 103.2 Q 256.2 105.0, 256.2 107.8 Q 256.2 110.2, 255.0 112.0 Q 253.8 113.9, 251.6 114.9 Q 249.4 115.9, 246.5 115.9 Q 243.5 115.9, 241.2 114.9 Q 239.0 113.8, 237.2 111.6 L 239.5 109.3 Q 241.2 111.2, 242.7 112.0 Q 244.2 112.7, 246.5 112.7 Q 249.1 112.7, 250.7 111.4 Q 252.2 110.0, 252.2 107.7 Q 252.2 104.8, 250.6 103.6 Q 249.0 102.2, 245.5 102.2 L 243.5 102.2 L 243.5 99.4 L 245.3 99.4 Q 248.3 99.3, 250.0 98.0 Q 251.6 96.6, 251.6 94.1 Q 251.6 92.3, 250.3 91.2 Q 248.9 90.1, 246.6 90.1 Q 244.2 90.1, 242.7 90.9 Q 241.3 91.8, 240.2 93.9 L 237.4 92.4 Q 238.4 90.0, 240.8 88.5 Q 243.2 86.9, 246.6 86.9 Q 250.7 86.9, 253.2 88.8 Q 255.6 90.8, 255.6 94.1 Q 255.6 96.4, 254.4 98.0 Q 253.1 99.7, 250.8 100.6 " fill="#000000"/>
<path class="atom-4" d="M 226.6 179.9 L 230.4 179.9 L 230.4 191.9 L 244.9 191.9 L 244.9 179.9 L 248.7 179.9 L 248.7 208.2 L 244.9 208.2 L 244.9 195.1 L 230.4 195.1 L 230.4 208.2 L 226.6 208.2 L 226.6 179.9 " fill="#000000"/>
<path class="atom-4" d="M 253.7 203.5 L 257.7 203.5 L 257.7 207.5 L 253.7 207.5 L 253.7 203.5 M 253.7 189.7 L 257.7 189.7 L 257.7 193.7 L 253.7 193.7 L 253.7 189.7 " fill="#000000"/>
<path class="atom-4" d="M 280.7 198.5 L 284.1 198.5 L 284.1 201.7 L 280.7 201.7 L 280.7 208.2 L 277.0 208.2 L 277.0 201.7 L 262.3 201.7 L 262.3 199.1 L 274.7 179.9 L 280.7 179.9 L 280.7 198.5 M 267.0 198.5 L 277.0 198.5 L 277.0 182.4 L 267.0 198.5 " fill="#000000"/>
<path class="atom-5" d="M 15.9 146.0 L 19.7 146.0 L 19.7 158.1 L 34.2 158.1 L 34.2 146.0 L 38.0 146.0 L 38.0 174.3 L 34.2 174.3 L 34.2 161.3 L 19.7 161.3 L 19.7 174.3 L 15.9 174.3 L 15.9 146.0 " fill="#000000"/>
<path class="atom-5" d="M 43.0 169.7 L 47.0 169.7 L 47.0 173.7 L 43.0 173.7 L 43.0 169.7 M 43.0 155.9 L 47.0 155.9 L 47.0 159.9 L 43.0 159.9 L 43.0 155.9 " fill="#000000"/>
<path class="atom-5" d="M 61.7 156.6 Q 64.2 156.6, 66.3 157.7 Q 68.3 158.7, 69.5 160.7 Q 70.6 162.7, 70.6 165.4 Q 70.6 168.3, 69.2 170.4 Q 67.8 172.5, 65.5 173.6 Q 63.1 174.7, 60.5 174.7 Q 57.9 174.7, 55.5 173.7 Q 53.1 172.7, 51.5 170.9 L 53.9 168.4 Q 55.2 169.9, 57.0 170.7 Q 58.8 171.4, 60.6 171.4 Q 63.1 171.4, 64.9 169.9 Q 66.6 168.3, 66.6 165.5 Q 66.6 162.5, 64.9 161.1 Q 63.1 159.6, 60.4 159.6 Q 57.9 159.6, 55.1 160.7 L 52.9 159.7 L 54.3 146.0 L 68.9 146.0 L 68.5 149.2 L 57.6 149.2 L 56.7 157.6 Q 59.3 156.6, 61.7 156.6 " fill="#000000"/>
</svg>