<svg xmlns="http://www.w3.org/2000/svg" xmlns:rdkit="http://www.rdkit.org/xml" xmlns:xlink="http://www.w3.org/1999/xlink" version="1.1" baseProfile="full" xml:space="preserve" width="500px" height="300px" viewBox="0 0 500 300">
<!-- END OF HEADER -->
<rect style="opacity:1.0;fill:#FFFFFF;stroke:none" width="500.0" height="300.0" x="0.0" y="0.0"> </rect>
<path class="bond-0 atom-0 atom-1" d="M 314.9,177.1 L 259.0,209.5" style="fill:none;fill-rule:evenodd;stroke:#000000;stroke-width:2.0px;stroke-linecap:butt;stroke-linejoin:miter;stroke-opacity:1"/>
<path class="bond-0 atom-0 atom-1" d="M 259.0,209.5 L 203.1,241.8" style="fill:none;fill-rule:evenodd;stroke:#FF0000;stroke-width:2.0px;stroke-linecap:butt;stroke-linejoin:miter;stroke-opacity:1"/>
<path class="bond-1 atom-0 atom-2" d="M 314.9,177.1 L 250.9,66.4" style="fill:none;fill-rule:evenodd;stroke:#000000;stroke-width:2.0px;stroke-linecap:butt;stroke-linejoin:miter;stroke-opacity:1"/>
<path class="bond-2 atom-0 atom-3" d="M 314.9,177.1 L 378.7,66.3" style="fill:none;fill-rule:evenodd;stroke:#000000;stroke-width:2.0px;stroke-linecap:butt;stroke-linejoin:miter;stroke-opacity:1"/>
<path class="bond-3 atom-0 atom-4" d="M 314.9,177.1 L 428.7,242.7" style="fill:none;fill-rule:evenodd;stroke:#000000;stroke-width:2.0px;stroke-linecap:butt;stroke-linejoin:miter;stroke-opacity:1"/>
<path class="bond-4 atom-1 atom-5" d="M 167.2,241.8 L 119.2,214.2" style="fill:none;fill-rule:evenodd;stroke:#FF0000;stroke-width:2.0px;stroke-linecap:butt;stroke-linejoin:miter;stroke-opacity:1"/>
<path class="bond-4 atom-1 atom-5" d="M 119.2,214.2 L 71.3,186.6" style="fill:none;fill-rule:evenodd;stroke:#000000;stroke-width:2.0px;stroke-linecap:butt;stroke-linejoin:miter;stroke-opacity:1"/>
<path class="atom-1" d="M 172.1 252.3 Q 172.1 245.5, 175.5 241.7 Q 178.8 237.9, 185.1 237.9 Q 191.4 237.9, 194.8 241.7 Q 198.1 245.5, 198.1 252.3 Q 198.1 259.1, 194.7 263.1 Q 191.3 266.9, 185.1 266.9 Q 178.9 266.9, 175.5 263.1 Q 172.1 259.2, 172.1 252.3 M 185.1 263.7 Q 189.4 263.7, 191.8 260.9 Q 194.1 257.9, 194.1 252.3 Q 194.1 246.7, 191.8 243.9 Q 189.4 241.1, 185.1 241.1 Q 180.8 241.1, 178.4 243.9 Q 176.1 246.7, 176.1 252.3 Q 176.1 258.0, 178.4 260.9 Q 180.8 263.7, 185.1 263.7 " fill="#FF0000"/>
<path class="atom-2" d="M 228.7 33.2 L 232.6 33.2 L 232.6 45.2 L 247.0 45.2 L 247.0 33.2 L 250.9 33.2 L 250.9 61.5 L 247.0 61.5 L 247.0 48.4 L 232.6 48.4 L 232.6 61.5 L 228.7 61.5 L 228.7 33.2 " fill="#000000"/>
<path class="atom-3" d="M 378.6 33.1 L 382.5 33.1 L 382.5 45.1 L 397.0 45.1 L 397.0 33.1 L 400.8 33.1 L 400.8 61.4 L 397.0 61.4 L 397.0 48.3 L 382.5 48.3 L 382.5 61.4 L 378.6 61.4 L 378.6 33.1 " fill="#000000"/>
<path class="atom-4" d="M 433.7 237.8 L 437.5 237.8 L 437.5 249.9 L 452.0 249.9 L 452.0 237.8 L 455.9 237.8 L 455.9 266.1 L 452.0 266.1 L 452.0 253.1 L 437.5 253.1 L 437.5 266.1 L 433.7 266.1 L 433.7 237.8 " fill="#000000"/>
<path class="atom-5" d="M 44.1 163.2 L 48.0 163.2 L 48.0 175.2 L 62.5 175.2 L 62.5 163.2 L 66.3 163.2 L 66.3 191.5 L 62.5 191.5 L 62.5 178.4 L 48.0 178.4 L 48.0 191.5 L 44.1 191.5 L 44.1 163.2 " fill="#000000"/>
</svg>