<svg xmlns="http://www.w3.org/2000/svg" xmlns:rdkit="http://www.rdkit.org/xml" xmlns:xlink="http://www.w3.org/1999/xlink" version="1.1" baseProfile="full" xml:space="preserve" width="300px" height="300px" viewBox="0 0 300 300">
<!-- END OF HEADER -->
<rect style="opacity:1.0;fill:#FFFFFF;stroke:none" width="300.0" height="300.0" x="0.0" y="0.0"> </rect>
<path class="bond-0 atom-0 atom-1" d="M 192.3,148.7 L 191.0,147.9" style="fill:none;fill-rule:evenodd;stroke:#000000;stroke-width:2.0px;stroke-linecap:butt;stroke-linejoin:miter;stroke-opacity:1"/>
<path class="bond-1 atom-1 atom-2" d="M 154.0,150.9 L 152.6,151.7" style="fill:none;fill-rule:evenodd;stroke:#000000;stroke-width:2.0px;stroke-linecap:butt;stroke-linejoin:miter;stroke-opacity:1"/>
<path class="bond-1 atom-1 atom-2" d="M 150.5,144.8 L 149.1,145.6" style="fill:none;fill-rule:evenodd;stroke:#000000;stroke-width:2.0px;stroke-linecap:butt;stroke-linejoin:miter;stroke-opacity:1"/>
<path class="bond-2 atom-2 atom-3" d="M 110.5,148.5 L 110.5,148.5" style="fill:none;fill-rule:evenodd;stroke:#000000;stroke-width:2.0px;stroke-linecap:butt;stroke-linejoin:miter;stroke-opacity:1"/>
<path class="bond-3 atom-3 atom-4" d="M 93.4,124.8 L 93.4,113.1" style="fill:none;fill-rule:evenodd;stroke:#000000;stroke-width:2.0px;stroke-linecap:butt;stroke-linejoin:miter;stroke-opacity:1"/>
<path class="bond-3 atom-3 atom-4" d="M 93.4,113.1 L 93.5,101.3" style="fill:none;fill-rule:evenodd;stroke:#FF0000;stroke-width:2.0px;stroke-linecap:butt;stroke-linejoin:miter;stroke-opacity:1"/>
<path class="bond-3 atom-3 atom-4" d="M 86.3,124.8 L 86.4,113.1" style="fill:none;fill-rule:evenodd;stroke:#000000;stroke-width:2.0px;stroke-linecap:butt;stroke-linejoin:miter;stroke-opacity:1"/>
<path class="bond-3 atom-3 atom-4" d="M 86.4,113.1 L 86.4,101.3" style="fill:none;fill-rule:evenodd;stroke:#FF0000;stroke-width:2.0px;stroke-linecap:butt;stroke-linejoin:miter;stroke-opacity:1"/>
<path class="bond-4 atom-3 atom-5" d="M 80.6,141.9 L 68.9,148.6" style="fill:none;fill-rule:evenodd;stroke:#000000;stroke-width:2.0px;stroke-linecap:butt;stroke-linejoin:miter;stroke-opacity:1"/>
<path class="bond-4 atom-3 atom-5" d="M 68.9,148.6 L 57.2,155.3" style="fill:none;fill-rule:evenodd;stroke:#FF0000;stroke-width:2.0px;stroke-linecap:butt;stroke-linejoin:miter;stroke-opacity:1"/>
<path class="bond-5 atom-0 atom-6" d="M 205.6,172.3 L 195.6,189.5" style="fill:none;fill-rule:evenodd;stroke:#000000;stroke-width:2.0px;stroke-linecap:butt;stroke-linejoin:miter;stroke-opacity:1"/>
<path class="bond-6 atom-0 atom-7" d="M 219.3,172.3 L 229.4,189.7" style="fill:none;fill-rule:evenodd;stroke:#000000;stroke-width:2.0px;stroke-linecap:butt;stroke-linejoin:miter;stroke-opacity:1"/>
<path class="bond-7 atom-0 atom-8" d="M 232.9,148.7 L 244.0,142.3" style="fill:none;fill-rule:evenodd;stroke:#000000;stroke-width:2.0px;stroke-linecap:butt;stroke-linejoin:miter;stroke-opacity:1"/>
<path class="bond-8 atom-1 atom-9" d="M 171.7,128.4 L 171.7,101.2" style="fill:none;fill-rule:evenodd;stroke:#000000;stroke-width:2.0px;stroke-linecap:butt;stroke-linejoin:miter;stroke-opacity:1"/>
<path class="bond-9 atom-2 atom-10" d="M 130.7,175.3 L 130.6,196.0" style="fill:none;fill-rule:evenodd;stroke:#000000;stroke-width:2.0px;stroke-linecap:butt;stroke-linejoin:miter;stroke-opacity:1"/>
<path class="atom-0" d="M 193.3 160.5 Q 193.3 155.5, 195.6 152.9 Q 197.9 150.2, 202.4 150.2 Q 206.5 150.2, 208.7 153.2 L 206.9 154.7 Q 205.3 152.6, 202.4 152.6 Q 199.4 152.6, 197.8 154.6 Q 196.2 156.6, 196.2 160.5 Q 196.2 164.4, 197.8 166.5 Q 199.5 168.5, 202.7 168.5 Q 204.9 168.5, 207.5 167.2 L 208.3 169.3 Q 207.2 170.0, 205.7 170.4 Q 204.1 170.8, 202.3 170.8 Q 197.9 170.8, 195.6 168.1 Q 193.3 165.5, 193.3 160.5 " fill="#000000"/>
<path class="atom-0" d="M 211.0 167.2 L 213.8 167.2 L 213.8 170.0 L 211.0 170.0 L 211.0 167.2 M 211.0 157.5 L 213.8 157.5 L 213.8 160.3 L 211.0 160.3 L 211.0 157.5 " fill="#000000"/>
<path class="atom-0" d="M 224.4 170.8 Q 220.7 170.8, 218.8 168.0 Q 217.0 165.3, 217.0 160.5 Q 217.0 155.6, 218.8 152.9 Q 220.7 150.2, 224.4 150.2 Q 228.1 150.2, 229.9 152.9 Q 231.7 155.6, 231.7 160.5 Q 231.7 165.3, 229.9 168.0 Q 228.1 170.8, 224.4 170.8 M 224.4 168.5 Q 226.6 168.5, 227.7 166.5 Q 228.9 164.4, 228.9 160.5 Q 228.9 156.5, 227.7 154.5 Q 226.6 152.5, 224.4 152.5 Q 222.2 152.5, 221.0 154.5 Q 219.9 156.5, 219.9 160.5 Q 219.9 164.4, 221.0 166.5 Q 222.2 168.5, 224.4 168.5 " fill="#000000"/>
<path class="atom-1" d="M 153.8 136.8 Q 153.8 131.8, 156.1 129.2 Q 158.5 126.5, 162.9 126.5 Q 167.1 126.5, 169.3 129.5 L 167.4 131.0 Q 165.8 128.9, 162.9 128.9 Q 159.9 128.9, 158.3 130.9 Q 156.7 132.9, 156.7 136.8 Q 156.7 140.7, 158.3 142.8 Q 160.0 144.8, 163.2 144.8 Q 165.4 144.8, 168.0 143.5 L 168.8 145.6 Q 167.8 146.3, 166.2 146.7 Q 164.6 147.1, 162.8 147.1 Q 158.5 147.1, 156.1 144.4 Q 153.8 141.8, 153.8 136.8 " fill="#000000"/>
<path class="atom-1" d="M 171.4 143.5 L 174.3 143.5 L 174.3 146.3 L 171.4 146.3 L 171.4 143.5 M 171.4 133.8 L 174.3 133.8 L 174.3 136.6 L 171.4 136.6 L 171.4 133.8 " fill="#000000"/>
<path class="atom-1" d="M 178.5 144.6 L 182.9 144.6 L 182.9 129.6 L 178.0 131.1 L 177.4 129.4 L 183.5 126.7 L 185.6 127.0 L 185.6 144.6 L 189.5 144.6 L 189.5 146.8 L 178.5 146.8 L 178.5 144.6 " fill="#000000"/>
<path class="atom-2" d="M 112.1 160.3 Q 112.1 155.3, 114.4 152.7 Q 116.8 150.1, 121.2 150.1 Q 125.4 150.1, 127.6 153.0 L 125.7 154.5 Q 124.1 152.4, 121.2 152.4 Q 118.2 152.4, 116.6 154.4 Q 115.0 156.4, 115.0 160.3 Q 115.0 164.3, 116.6 166.3 Q 118.3 168.3, 121.5 168.3 Q 123.7 168.3, 126.3 167.0 L 127.1 169.1 Q 126.1 169.8, 124.5 170.2 Q 122.9 170.6, 121.1 170.6 Q 116.8 170.6, 114.4 167.9 Q 112.1 165.3, 112.1 160.3 " fill="#000000"/>
<path class="atom-2" d="M 129.8 167.0 L 132.6 167.0 L 132.6 169.9 L 129.8 169.9 L 129.8 167.0 M 129.8 157.3 L 132.6 157.3 L 132.6 160.1 L 129.8 160.1 L 129.8 157.3 " fill="#000000"/>
<path class="atom-2" d="M 135.8 154.1 Q 136.6 152.2, 138.3 151.1 Q 140.1 150.1, 142.5 150.1 Q 145.6 150.1, 147.3 151.7 Q 149.0 153.4, 149.0 156.3 Q 149.0 159.3, 146.8 162.0 Q 144.6 164.8, 140.0 168.1 L 149.3 168.1 L 149.3 170.4 L 135.8 170.4 L 135.8 168.5 Q 139.5 165.8, 141.7 163.8 Q 144.0 161.8, 145.1 160.0 Q 146.1 158.3, 146.1 156.4 Q 146.1 154.5, 145.2 153.4 Q 144.2 152.3, 142.5 152.3 Q 140.9 152.3, 139.8 153.0 Q 138.8 153.6, 138.0 155.1 L 135.8 154.1 " fill="#000000"/>
<path class="atom-3" d="M 82.1 136.6 Q 82.1 131.6, 84.4 129.0 Q 86.8 126.4, 91.2 126.4 Q 95.4 126.4, 97.6 129.3 L 95.7 130.8 Q 94.1 128.7, 91.2 128.7 Q 88.2 128.7, 86.6 130.7 Q 85.0 132.8, 85.0 136.6 Q 85.0 140.6, 86.7 142.6 Q 88.3 144.7, 91.6 144.7 Q 93.8 144.7, 96.3 143.3 L 97.1 145.5 Q 96.1 146.1, 94.5 146.5 Q 92.9 146.9, 91.2 146.9 Q 86.8 146.9, 84.4 144.3 Q 82.1 141.6, 82.1 136.6 " fill="#000000"/>
<path class="atom-3" d="M 99.8 143.4 L 102.6 143.4 L 102.6 146.2 L 99.8 146.2 L 99.8 143.4 M 99.8 133.6 L 102.6 133.6 L 102.6 136.4 L 99.8 136.4 L 99.8 133.6 " fill="#000000"/>
<path class="atom-3" d="M 115.4 136.1 Q 117.4 136.7, 118.3 137.9 Q 119.3 139.2, 119.3 141.2 Q 119.3 142.9, 118.4 144.2 Q 117.6 145.5, 116.0 146.2 Q 114.5 147.0, 112.4 147.0 Q 110.3 147.0, 108.7 146.2 Q 107.1 145.5, 105.8 143.9 L 107.4 142.3 Q 108.7 143.6, 109.7 144.2 Q 110.8 144.7, 112.4 144.7 Q 114.2 144.7, 115.3 143.7 Q 116.5 142.7, 116.5 141.1 Q 116.5 139.1, 115.3 138.2 Q 114.2 137.3, 111.7 137.3 L 110.2 137.3 L 110.2 135.2 L 111.5 135.2 Q 113.7 135.2, 114.9 134.3 Q 116.0 133.3, 116.0 131.5 Q 116.0 130.2, 115.1 129.4 Q 114.1 128.6, 112.5 128.6 Q 110.8 128.6, 109.7 129.2 Q 108.7 129.8, 107.9 131.3 L 106.0 130.3 Q 106.7 128.6, 108.4 127.5 Q 110.1 126.4, 112.5 126.4 Q 115.4 126.4, 117.1 127.8 Q 118.9 129.2, 118.9 131.5 Q 118.9 133.1, 118.0 134.3 Q 117.1 135.5, 115.4 136.1 " fill="#000000"/>
<path class="atom-4" d="M 80.7 89.4 Q 80.7 84.5, 83.1 81.9 Q 85.5 79.2, 89.9 79.2 Q 94.4 79.2, 96.8 81.9 Q 99.2 84.5, 99.2 89.4 Q 99.2 94.2, 96.7 97.0 Q 94.3 99.8, 89.9 99.8 Q 85.5 99.8, 83.1 97.0 Q 80.7 94.3, 80.7 89.4 M 89.9 97.5 Q 93.0 97.5, 94.7 95.5 Q 96.3 93.4, 96.3 89.4 Q 96.3 85.4, 94.7 83.4 Q 93.0 81.4, 89.9 81.4 Q 86.9 81.4, 85.2 83.4 Q 83.6 85.4, 83.6 89.4 Q 83.6 93.4, 85.2 95.5 Q 86.9 97.5, 89.9 97.5 " fill="#FF0000"/>
<path class="atom-4" d="M 101.8 96.1 L 104.6 96.1 L 104.6 99.0 L 101.8 99.0 L 101.8 96.1 M 101.8 86.4 L 104.6 86.4 L 104.6 89.2 L 101.8 89.2 L 101.8 86.4 " fill="#FF0000"/>
<path class="atom-4" d="M 121.0 92.6 L 123.4 92.6 L 123.4 94.8 L 121.0 94.8 L 121.0 99.4 L 118.3 99.4 L 118.3 94.8 L 108.0 94.8 L 108.0 93.0 L 116.8 79.4 L 121.0 79.4 L 121.0 92.6 M 111.3 92.6 L 118.3 92.6 L 118.3 81.2 L 111.3 92.6 " fill="#FF0000"/>
<path class="atom-5" d="M 15.0 160.1 Q 15.0 155.3, 17.4 152.6 Q 19.8 149.9, 24.2 149.9 Q 28.7 149.9, 31.0 152.6 Q 33.4 155.3, 33.4 160.1 Q 33.4 165.0, 31.0 167.8 Q 28.6 170.5, 24.2 170.5 Q 19.8 170.5, 17.4 167.8 Q 15.0 165.0, 15.0 160.1 M 24.2 168.2 Q 27.3 168.2, 28.9 166.2 Q 30.6 164.1, 30.6 160.1 Q 30.6 156.2, 28.9 154.2 Q 27.3 152.2, 24.2 152.2 Q 21.1 152.2, 19.5 154.2 Q 17.8 156.1, 17.8 160.1 Q 17.8 164.2, 19.5 166.2 Q 21.1 168.2, 24.2 168.2 " fill="#FF0000"/>
<path class="atom-5" d="M 36.0 166.9 L 38.8 166.9 L 38.8 169.7 L 36.0 169.7 L 36.0 166.9 M 36.0 157.1 L 38.8 157.1 L 38.8 160.0 L 36.0 160.0 L 36.0 157.1 " fill="#FF0000"/>
<path class="atom-5" d="M 49.4 157.6 Q 51.2 157.6, 52.6 158.4 Q 54.0 159.1, 54.9 160.6 Q 55.7 162.0, 55.7 163.9 Q 55.7 165.9, 54.7 167.4 Q 53.7 168.9, 52.0 169.7 Q 50.4 170.4, 48.5 170.4 Q 46.7 170.4, 45.0 169.7 Q 43.3 169.1, 42.1 167.8 L 43.8 166.0 Q 44.7 167.0, 46.0 167.6 Q 47.3 168.1, 48.6 168.1 Q 50.4 168.1, 51.6 167.0 Q 52.9 165.9, 52.9 163.9 Q 52.9 161.8, 51.6 160.8 Q 50.4 159.8, 48.4 159.8 Q 46.7 159.8, 44.7 160.5 L 43.2 159.8 L 44.1 150.1 L 54.4 150.1 L 54.2 152.4 L 46.4 152.4 L 45.9 158.4 Q 47.6 157.6, 49.4 157.6 " fill="#FF0000"/>
<path class="atom-6" d="M 180.9 191.3 L 183.7 191.3 L 183.7 199.8 L 193.9 199.8 L 193.9 191.3 L 196.6 191.3 L 196.6 211.4 L 193.9 211.4 L 193.9 202.1 L 183.7 202.1 L 183.7 211.4 L 180.9 211.4 L 180.9 191.3 " fill="#000000"/>
<path class="atom-6" d="M 200.1 208.1 L 203.0 208.1 L 203.0 210.9 L 200.1 210.9 L 200.1 208.1 M 200.1 198.3 L 203.0 198.3 L 203.0 201.1 L 200.1 201.1 L 200.1 198.3 " fill="#000000"/>
<path class="atom-6" d="M 214.0 198.9 Q 215.8 198.9, 217.2 199.6 Q 218.6 200.4, 219.3 201.8 Q 220.1 203.2, 220.1 204.9 Q 220.1 206.9, 219.2 208.4 Q 218.4 209.9, 216.8 210.8 Q 215.3 211.6, 213.3 211.6 Q 209.8 211.6, 208.0 209.2 Q 206.2 206.8, 206.2 201.9 Q 206.2 196.6, 208.4 193.9 Q 210.6 191.1, 214.9 191.1 Q 216.1 191.1, 217.2 191.4 Q 218.3 191.7, 219.3 192.3 L 218.2 194.1 Q 216.7 193.4, 214.9 193.4 Q 212.1 193.4, 210.7 195.2 Q 209.2 197.0, 209.0 200.8 Q 210.1 199.8, 211.3 199.4 Q 212.6 198.9, 214.0 198.9 M 213.4 209.3 Q 214.4 209.3, 215.3 208.7 Q 216.2 208.1, 216.7 207.2 Q 217.3 206.2, 217.3 204.9 Q 217.3 203.2, 216.3 202.1 Q 215.3 201.1, 213.5 201.1 Q 212.3 201.1, 211.1 201.6 Q 209.9 202.1, 209.0 203.0 Q 209.2 206.3, 210.2 207.8 Q 211.2 209.3, 213.4 209.3 " fill="#000000"/>
<path class="atom-7" d="M 228.2 191.3 L 230.9 191.3 L 230.9 199.8 L 241.1 199.8 L 241.1 191.3 L 243.9 191.3 L 243.9 211.4 L 241.1 211.4 L 241.1 202.1 L 230.9 202.1 L 230.9 211.4 L 228.2 211.4 L 228.2 191.3 " fill="#000000"/>
<path class="atom-7" d="M 247.3 208.0 L 250.2 208.0 L 250.2 210.9 L 247.3 210.9 L 247.3 208.0 M 247.3 198.3 L 250.2 198.3 L 250.2 201.1 L 247.3 201.1 L 247.3 198.3 " fill="#000000"/>
<path class="atom-7" d="M 263.9 193.6 L 253.4 193.6 L 253.4 191.3 L 266.7 191.3 L 266.7 193.3 L 258.6 211.4 L 255.9 211.4 L 263.9 193.6 " fill="#000000"/>
<path class="atom-8" d="M 245.6 126.9 L 248.3 126.9 L 248.3 135.5 L 258.6 135.5 L 258.6 126.9 L 261.3 126.9 L 261.3 147.0 L 258.6 147.0 L 258.6 137.7 L 248.3 137.7 L 248.3 147.0 L 245.6 147.0 L 245.6 126.9 " fill="#000000"/>
<path class="atom-8" d="M 264.8 143.7 L 267.6 143.7 L 267.6 146.5 L 264.8 146.5 L 264.8 143.7 M 264.8 133.9 L 267.6 133.9 L 267.6 136.8 L 264.8 136.8 L 264.8 133.9 " fill="#000000"/>
<path class="atom-8" d="M 281.1 136.4 Q 282.9 137.2, 284.0 138.3 Q 285.0 139.5, 285.0 141.5 Q 285.0 143.2, 284.1 144.5 Q 283.2 145.8, 281.7 146.6 Q 280.1 147.3, 278.0 147.3 Q 274.7 147.3, 272.8 145.7 Q 270.8 144.2, 270.8 141.5 Q 270.8 139.9, 271.7 138.6 Q 272.5 137.4, 274.3 136.5 Q 273.0 135.7, 272.3 134.6 Q 271.6 133.5, 271.6 131.8 Q 271.6 129.5, 273.3 128.1 Q 275.0 126.7, 277.9 126.7 Q 280.8 126.7, 282.5 128.1 Q 284.3 129.5, 284.3 131.8 Q 284.3 133.3, 283.4 134.4 Q 282.6 135.5, 281.1 136.4 M 277.9 128.8 Q 276.2 128.8, 275.3 129.6 Q 274.4 130.4, 274.4 131.8 Q 274.4 132.9, 275.0 133.6 Q 275.6 134.3, 276.5 134.7 Q 277.4 135.1, 279.2 135.7 Q 280.4 134.8, 280.9 133.9 Q 281.4 133.0, 281.4 131.8 Q 281.4 130.4, 280.5 129.6 Q 279.6 128.8, 277.9 128.8 M 278.0 145.2 Q 279.9 145.2, 281.0 144.2 Q 282.2 143.1, 282.2 141.5 Q 282.2 140.4, 281.6 139.7 Q 281.0 139.0, 280.1 138.6 Q 279.2 138.2, 277.6 137.7 L 276.3 137.3 Q 274.9 138.2, 274.3 139.2 Q 273.7 140.2, 273.7 141.5 Q 273.7 143.1, 274.9 144.2 Q 276.0 145.2, 278.0 145.2 " fill="#000000"/>
<path class="atom-9" d="M 163.9 79.5 L 166.6 79.5 L 166.6 88.1 L 176.9 88.1 L 176.9 79.5 L 179.6 79.5 L 179.6 99.6 L 176.9 99.6 L 176.9 90.3 L 166.6 90.3 L 166.6 99.6 L 163.9 99.6 L 163.9 79.5 " fill="#000000"/>
<path class="atom-9" d="M 183.1 96.3 L 185.9 96.3 L 185.9 99.1 L 183.1 99.1 L 183.1 96.3 M 183.1 86.5 L 185.9 86.5 L 185.9 89.4 L 183.1 89.4 L 183.1 86.5 " fill="#000000"/>
<path class="atom-9" d="M 195.9 79.3 Q 199.4 79.3, 201.2 81.8 Q 203.0 84.2, 203.0 89.0 Q 203.0 94.3, 200.8 97.1 Q 198.6 99.8, 194.3 99.8 Q 193.1 99.8, 192.0 99.6 Q 190.9 99.3, 189.9 98.7 L 191.0 96.8 Q 192.5 97.6, 194.3 97.6 Q 197.1 97.6, 198.6 95.8 Q 200.0 93.9, 200.2 90.1 Q 199.1 91.1, 197.8 91.6 Q 196.6 92.1, 195.2 92.1 Q 193.4 92.1, 192.0 91.3 Q 190.6 90.5, 189.9 89.2 Q 189.1 87.8, 189.1 86.0 Q 189.1 84.1, 190.0 82.5 Q 190.8 81.0, 192.4 80.2 Q 193.9 79.3, 195.9 79.3 M 192.0 86.0 Q 192.0 87.8, 192.9 88.8 Q 193.9 89.8, 195.7 89.8 Q 196.9 89.8, 198.1 89.3 Q 199.3 88.8, 200.2 88.0 Q 200.1 84.6, 199.0 83.1 Q 198.0 81.6, 195.8 81.6 Q 194.8 81.6, 193.8 82.2 Q 193.0 82.8, 192.5 83.8 Q 192.0 84.8, 192.0 86.0 " fill="#000000"/>
<path class="atom-10" d="M 122.8 197.5 L 125.5 197.5 L 125.5 206.1 L 135.7 206.1 L 135.7 197.5 L 138.5 197.5 L 138.5 217.6 L 135.7 217.6 L 135.7 208.3 L 125.5 208.3 L 125.5 217.6 L 122.8 217.6 L 122.8 197.5 " fill="#000000"/>
<path class="atom-10" d="M 142.0 214.3 L 144.8 214.3 L 144.8 217.1 L 142.0 217.1 L 142.0 214.3 M 142.0 204.5 L 144.8 204.5 L 144.8 207.4 L 142.0 207.4 L 142.0 204.5 " fill="#000000"/>
<path class="atom-10" d="M 149.2 215.3 L 153.6 215.3 L 153.6 200.3 L 148.7 201.8 L 148.1 200.2 L 154.2 197.4 L 156.2 197.7 L 156.2 215.3 L 160.2 215.3 L 160.2 217.6 L 149.2 217.6 L 149.2 215.3 " fill="#000000"/>
<path class="atom-10" d="M 169.8 217.8 Q 166.2 217.8, 164.3 215.1 Q 162.5 212.4, 162.5 207.5 Q 162.5 202.7, 164.3 200.0 Q 166.1 197.3, 169.8 197.3 Q 173.6 197.3, 175.4 200.0 Q 177.2 202.7, 177.2 207.5 Q 177.2 212.4, 175.3 215.1 Q 173.5 217.8, 169.8 217.8 M 169.8 215.5 Q 172.0 215.5, 173.2 213.5 Q 174.4 211.5, 174.4 207.5 Q 174.4 203.6, 173.2 201.6 Q 172.0 199.6, 169.8 199.6 Q 167.7 199.6, 166.5 201.6 Q 165.3 203.6, 165.3 207.5 Q 165.3 211.5, 166.5 213.5 Q 167.7 215.5, 169.8 215.5 " fill="#000000"/>
</svg>