<svg xmlns="http://www.w3.org/2000/svg" xmlns:rdkit="http://www.rdkit.org/xml" xmlns:xlink="http://www.w3.org/1999/xlink" version="1.1" baseProfile="full" xml:space="preserve" width="500px" height="300px" viewBox="0 0 500 300">
<!-- END OF HEADER -->
<rect style="opacity:1.0;fill:#FFFFFF;stroke:none" width="500.0" height="300.0" x="0.0" y="0.0"> </rect>
<path class="bond-0 atom-0 atom-1" d="M 370.7,173.5 L 290.9,127.3" style="fill:none;fill-rule:evenodd;stroke:#000000;stroke-width:2.0px;stroke-linecap:butt;stroke-linejoin:miter;stroke-opacity:1"/>
<path class="bond-1 atom-1 atom-2" d="M 290.9,127.3 L 211.0,173.2" style="fill:none;fill-rule:evenodd;stroke:#000000;stroke-width:2.0px;stroke-linecap:butt;stroke-linejoin:miter;stroke-opacity:1"/>
<path class="bond-1 atom-1 atom-2" d="M 290.9,143.2 L 224.8,181.2" style="fill:none;fill-rule:evenodd;stroke:#000000;stroke-width:2.0px;stroke-linecap:butt;stroke-linejoin:miter;stroke-opacity:1"/>
<path class="bond-2 atom-2 atom-3" d="M 211.0,173.2 L 131.3,127.0" style="fill:none;fill-rule:evenodd;stroke:#000000;stroke-width:2.0px;stroke-linecap:butt;stroke-linejoin:miter;stroke-opacity:1"/>
<path class="bond-3 atom-3 atom-4" d="M 138.2,131.0 L 138.2,91.8" style="fill:none;fill-rule:evenodd;stroke:#000000;stroke-width:2.0px;stroke-linecap:butt;stroke-linejoin:miter;stroke-opacity:1"/>
<path class="bond-3 atom-3 atom-4" d="M 138.2,91.8 L 138.3,52.6" style="fill:none;fill-rule:evenodd;stroke:#FF0000;stroke-width:2.0px;stroke-linecap:butt;stroke-linejoin:miter;stroke-opacity:1"/>
<path class="bond-3 atom-3 atom-4" d="M 124.3,130.9 L 124.4,91.7" style="fill:none;fill-rule:evenodd;stroke:#000000;stroke-width:2.0px;stroke-linecap:butt;stroke-linejoin:miter;stroke-opacity:1"/>
<path class="bond-3 atom-3 atom-4" d="M 124.4,91.7 L 124.5,52.6" style="fill:none;fill-rule:evenodd;stroke:#FF0000;stroke-width:2.0px;stroke-linecap:butt;stroke-linejoin:miter;stroke-opacity:1"/>
<path class="bond-4 atom-3 atom-5" d="M 131.3,127.0 L 102.4,143.6" style="fill:none;fill-rule:evenodd;stroke:#000000;stroke-width:2.0px;stroke-linecap:butt;stroke-linejoin:miter;stroke-opacity:1"/>
<path class="bond-4 atom-3 atom-5" d="M 102.4,143.6 L 73.5,160.1" style="fill:none;fill-rule:evenodd;stroke:#FF0000;stroke-width:2.0px;stroke-linecap:butt;stroke-linejoin:miter;stroke-opacity:1"/>
<path class="bond-5 atom-0 atom-6" d="M 370.7,173.5 L 334.4,236.1" style="fill:none;fill-rule:evenodd;stroke:#000000;stroke-width:2.0px;stroke-linecap:butt;stroke-linejoin:miter;stroke-opacity:1"/>
<path class="bond-6 atom-0 atom-7" d="M 370.7,173.5 L 406.7,236.3" style="fill:none;fill-rule:evenodd;stroke:#000000;stroke-width:2.0px;stroke-linecap:butt;stroke-linejoin:miter;stroke-opacity:1"/>
<path class="bond-7 atom-0 atom-8" d="M 370.7,173.5 L 436.5,135.7" style="fill:none;fill-rule:evenodd;stroke:#000000;stroke-width:2.0px;stroke-linecap:butt;stroke-linejoin:miter;stroke-opacity:1"/>
<path class="bond-8 atom-1 atom-9" d="M 290.9,127.3 L 291.1,52.3" style="fill:none;fill-rule:evenodd;stroke:#000000;stroke-width:2.0px;stroke-linecap:butt;stroke-linejoin:miter;stroke-opacity:1"/>
<path class="bond-9 atom-2 atom-10" d="M 211.0,173.2 L 210.9,248.2" style="fill:none;fill-rule:evenodd;stroke:#000000;stroke-width:2.0px;stroke-linecap:butt;stroke-linejoin:miter;stroke-opacity:1"/>
<path d="M 135.3,129.3 L 131.3,127.0 L 129.8,127.8" style="fill:none;stroke:#000000;stroke-width:2.0px;stroke-linecap:butt;stroke-linejoin:miter;stroke-miterlimit:10;stroke-opacity:1;"/>
<path class="atom-4" d="M 118.4 34.9 Q 118.4 28.1, 121.8 24.3 Q 125.2 20.5, 131.4 20.5 Q 137.7 20.5, 141.1 24.3 Q 144.4 28.1, 144.4 34.9 Q 144.4 41.7, 141.0 45.7 Q 137.6 49.5, 131.4 49.5 Q 125.2 49.5, 121.8 45.7 Q 118.4 41.8, 118.4 34.9 M 131.4 46.3 Q 135.8 46.3, 138.1 43.5 Q 140.4 40.5, 140.4 34.9 Q 140.4 29.3, 138.1 26.5 Q 135.8 23.7, 131.4 23.7 Q 127.1 23.7, 124.8 26.5 Q 122.4 29.3, 122.4 34.9 Q 122.4 40.6, 124.8 43.5 Q 127.1 46.3, 131.4 46.3 " fill="#FF0000"/>
<path class="atom-5" d="M 38.3 173.0 Q 38.3 166.2, 41.7 162.4 Q 45.0 158.6, 51.3 158.6 Q 57.6 158.6, 61.0 162.4 Q 64.3 166.2, 64.3 173.0 Q 64.3 179.8, 60.9 183.8 Q 57.5 187.6, 51.3 187.6 Q 45.1 187.6, 41.7 183.8 Q 38.3 179.9, 38.3 173.0 M 51.3 184.4 Q 55.6 184.4, 58.0 181.6 Q 60.3 178.6, 60.3 173.0 Q 60.3 167.4, 58.0 164.6 Q 55.6 161.8, 51.3 161.8 Q 47.0 161.8, 44.6 164.6 Q 42.3 167.4, 42.3 173.0 Q 42.3 178.7, 44.6 181.6 Q 47.0 184.4, 51.3 184.4 " fill="#FF0000"/>
<path class="atom-5" d="M 68.4 163.2 L 78.0 163.2 L 78.0 165.3 L 68.4 165.3 L 68.4 163.2 " fill="#FF0000"/>
<path class="atom-6" d="M 313.3 239.1 L 317.2 239.1 L 317.2 251.2 L 331.7 251.2 L 331.7 239.1 L 335.5 239.1 L 335.5 267.4 L 331.7 267.4 L 331.7 254.4 L 317.2 254.4 L 317.2 267.4 L 313.3 267.4 L 313.3 239.1 " fill="#000000"/>
<path class="atom-7" d="M 405.5 239.3 L 409.4 239.3 L 409.4 251.3 L 423.8 251.3 L 423.8 239.3 L 427.7 239.3 L 427.7 267.6 L 423.8 267.6 L 423.8 254.5 L 409.4 254.5 L 409.4 267.6 L 405.5 267.6 L 405.5 239.3 " fill="#000000"/>
<path class="atom-8" d="M 439.5 113.4 L 443.4 113.4 L 443.4 125.5 L 457.8 125.5 L 457.8 113.4 L 461.7 113.4 L 461.7 141.7 L 457.8 141.7 L 457.8 128.7 L 443.4 128.7 L 443.4 141.7 L 439.5 141.7 L 439.5 113.4 " fill="#000000"/>
<path class="atom-9" d="M 280.0 20.9 L 283.9 20.9 L 283.9 33.0 L 298.4 33.0 L 298.4 20.9 L 302.2 20.9 L 302.2 49.2 L 298.4 49.2 L 298.4 36.2 L 283.9 36.2 L 283.9 49.2 L 280.0 49.2 L 280.0 20.9 " fill="#000000"/>
<path class="atom-10" d="M 199.7 251.2 L 203.6 251.2 L 203.6 263.3 L 218.1 263.3 L 218.1 251.2 L 221.9 251.2 L 221.9 279.5 L 218.1 279.5 L 218.1 266.5 L 203.6 266.5 L 203.6 279.5 L 199.7 279.5 L 199.7 251.2 " fill="#000000"/>
</svg>