<svg xmlns="http://www.w3.org/2000/svg" xmlns:rdkit="http://www.rdkit.org/xml" xmlns:xlink="http://www.w3.org/1999/xlink" version="1.1" baseProfile="full" xml:space="preserve" width="500px" height="300px" viewBox="0 0 500 300">
<!-- END OF HEADER -->
<rect style="opacity:1.0;fill:#FFFFFF;stroke:none" width="500.0" height="300.0" x="0.0" y="0.0"> </rect>
<path class="bond-0 atom-2 atom-19" d="M 213.2,276.7 L 203.6,271.2" style="fill:none;fill-rule:evenodd;stroke:#FF0000;stroke-width:2.0px;stroke-linecap:butt;stroke-linejoin:miter;stroke-opacity:1"/>
<path class="bond-0 atom-2 atom-19" d="M 203.6,271.2 L 193.9,265.6" style="fill:none;fill-rule:evenodd;stroke:#000000;stroke-width:2.0px;stroke-linecap:butt;stroke-linejoin:miter;stroke-opacity:1"/>
<path class="bond-0 atom-2 atom-19" d="M 215.4,273.0 L 205.7,267.5" style="fill:none;fill-rule:evenodd;stroke:#FF0000;stroke-width:2.0px;stroke-linecap:butt;stroke-linejoin:miter;stroke-opacity:1"/>
<path class="bond-0 atom-2 atom-19" d="M 205.7,267.5 L 196.1,261.9" style="fill:none;fill-rule:evenodd;stroke:#000000;stroke-width:2.0px;stroke-linecap:butt;stroke-linejoin:miter;stroke-opacity:1"/>
<path class="bond-1 atom-4 atom-22" d="M 241.8,184.6 L 231.3,188.7" style="fill:none;fill-rule:evenodd;stroke:#0000FF;stroke-width:2.0px;stroke-linecap:butt;stroke-linejoin:miter;stroke-opacity:1"/>
<path class="bond-1 atom-4 atom-22" d="M 231.3,188.7 L 220.8,192.9" style="fill:none;fill-rule:evenodd;stroke:#000000;stroke-width:2.0px;stroke-linecap:butt;stroke-linejoin:miter;stroke-opacity:1"/>
<path class="bond-2 atom-4 atom-7" d="M 249.5,175.4 L 252.6,165.2" style="fill:none;fill-rule:evenodd;stroke:#0000FF;stroke-width:2.0px;stroke-linecap:butt;stroke-linejoin:miter;stroke-opacity:1"/>
<path class="bond-2 atom-4 atom-7" d="M 252.6,165.2 L 255.8,155.1" style="fill:none;fill-rule:evenodd;stroke:#000000;stroke-width:2.0px;stroke-linecap:butt;stroke-linejoin:miter;stroke-opacity:1"/>
<path class="bond-3 atom-27 atom-5" d="M 236.1,130.9 L 236.1,131.5" style="fill:none;fill-rule:evenodd;stroke:#000000;stroke-width:1.0px;stroke-linecap:butt;stroke-linejoin:miter;stroke-opacity:1"/>
<path class="bond-3 atom-27 atom-5" d="M 232.6,130.3 L 232.5,131.6" style="fill:none;fill-rule:evenodd;stroke:#000000;stroke-width:1.0px;stroke-linecap:butt;stroke-linejoin:miter;stroke-opacity:1"/>
<path class="bond-3 atom-27 atom-5" d="M 229.0,129.8 L 228.9,131.6" style="fill:none;fill-rule:evenodd;stroke:#000000;stroke-width:1.0px;stroke-linecap:butt;stroke-linejoin:miter;stroke-opacity:1"/>
<path class="bond-3 atom-27 atom-5" d="M 225.5,129.2 L 225.3,131.7" style="fill:none;fill-rule:evenodd;stroke:#000000;stroke-width:1.0px;stroke-linecap:butt;stroke-linejoin:miter;stroke-opacity:1"/>
<path class="bond-3 atom-27 atom-5" d="M 222.0,128.6 L 221.7,131.7" style="fill:none;fill-rule:evenodd;stroke:#000000;stroke-width:1.0px;stroke-linecap:butt;stroke-linejoin:miter;stroke-opacity:1"/>
<path class="bond-3 atom-27 atom-5" d="M 218.4,128.1 L 218.1,131.7" style="fill:none;fill-rule:evenodd;stroke:#000000;stroke-width:1.0px;stroke-linecap:butt;stroke-linejoin:miter;stroke-opacity:1"/>
<path class="bond-3 atom-27 atom-5" d="M 214.9,127.5 L 214.6,131.8" style="fill:none;fill-rule:evenodd;stroke:#000000;stroke-width:1.0px;stroke-linecap:butt;stroke-linejoin:miter;stroke-opacity:1"/>
<path class="bond-4 atom-5 atom-3" d="M 211.1,129.4 L 204.7,136.3" style="fill:none;fill-rule:evenodd;stroke:#000000;stroke-width:2.0px;stroke-linecap:butt;stroke-linejoin:miter;stroke-opacity:1"/>
<path class="bond-4 atom-5 atom-3" d="M 204.7,136.3 L 198.2,143.3" style="fill:none;fill-rule:evenodd;stroke:#FF0000;stroke-width:2.0px;stroke-linecap:butt;stroke-linejoin:miter;stroke-opacity:1"/>
<path class="bond-5 atom-6 atom-23" d="M 268.3,201.8 L 295.6,193.4" style="fill:none;fill-rule:evenodd;stroke:#000000;stroke-width:2.0px;stroke-linecap:butt;stroke-linejoin:miter;stroke-opacity:1"/>
<path class="bond-6 atom-6 atom-4" d="M 268.3,201.8 L 260.6,194.7" style="fill:none;fill-rule:evenodd;stroke:#000000;stroke-width:2.0px;stroke-linecap:butt;stroke-linejoin:miter;stroke-opacity:1"/>
<path class="bond-6 atom-6 atom-4" d="M 260.6,194.7 L 252.9,187.5" style="fill:none;fill-rule:evenodd;stroke:#0000FF;stroke-width:2.0px;stroke-linecap:butt;stroke-linejoin:miter;stroke-opacity:1"/>
<path class="bond-7 atom-8 atom-11" d="M 334.3,181.4 L 320.9,206.7" style="fill:none;fill-rule:evenodd;stroke:#000000;stroke-width:2.0px;stroke-linecap:butt;stroke-linejoin:miter;stroke-opacity:1"/>
<path class="bond-8 atom-12 atom-23" d="M 309.0,168.1 L 295.6,193.4" style="fill:none;fill-rule:evenodd;stroke:#000000;stroke-width:2.0px;stroke-linecap:butt;stroke-linejoin:miter;stroke-opacity:1"/>
<path class="bond-9 atom-12 atom-8" d="M 309.0,168.1 L 334.3,181.4" style="fill:none;fill-rule:evenodd;stroke:#000000;stroke-width:2.0px;stroke-linecap:butt;stroke-linejoin:miter;stroke-opacity:1"/>
<path class="bond-10 atom-13 atom-10" d="M 171.3,221.5 L 171.2,192.9" style="fill:none;fill-rule:evenodd;stroke:#000000;stroke-width:2.0px;stroke-linecap:butt;stroke-linejoin:miter;stroke-opacity:1"/>
<path class="bond-11 atom-14 atom-9" d="M 200.8,96.6 L 194.8,68.6" style="fill:none;fill-rule:evenodd;stroke:#000000;stroke-width:2.0px;stroke-linecap:butt;stroke-linejoin:miter;stroke-opacity:1"/>
<path class="bond-11 atom-14 atom-9" d="M 204.5,93.3 L 199.5,70.1" style="fill:none;fill-rule:evenodd;stroke:#000000;stroke-width:2.0px;stroke-linecap:butt;stroke-linejoin:miter;stroke-opacity:1"/>
<path class="bond-12 atom-15 atom-25" d="M 274.0,100.5 L 249.2,86.2" style="fill:none;fill-rule:evenodd;stroke:#000000;stroke-width:2.0px;stroke-linecap:butt;stroke-linejoin:miter;stroke-opacity:1"/>
<path class="bond-13 atom-16 atom-20" d="M 243.3,58.3 L 216.1,49.5" style="fill:none;fill-rule:evenodd;stroke:#000000;stroke-width:2.0px;stroke-linecap:butt;stroke-linejoin:miter;stroke-opacity:1"/>
<path class="bond-13 atom-16 atom-20" d="M 239.6,61.6 L 217.1,54.3" style="fill:none;fill-rule:evenodd;stroke:#000000;stroke-width:2.0px;stroke-linecap:butt;stroke-linejoin:miter;stroke-opacity:1"/>
<path class="bond-14 atom-17 atom-22" d="M 220.8,221.5 L 220.8,192.9" style="fill:none;fill-rule:evenodd;stroke:#000000;stroke-width:2.0px;stroke-linecap:butt;stroke-linejoin:miter;stroke-opacity:1"/>
<path class="bond-14 atom-17 atom-22" d="M 216.5,219.0 L 216.5,195.4" style="fill:none;fill-rule:evenodd;stroke:#000000;stroke-width:2.0px;stroke-linecap:butt;stroke-linejoin:miter;stroke-opacity:1"/>
<path class="bond-15 atom-17 atom-24" d="M 220.8,221.5 L 196.0,235.8" style="fill:none;fill-rule:evenodd;stroke:#000000;stroke-width:2.0px;stroke-linecap:butt;stroke-linejoin:miter;stroke-opacity:1"/>
<path class="bond-16 atom-18 atom-15" d="M 268.1,128.5 L 274.0,100.5" style="fill:none;fill-rule:evenodd;stroke:#000000;stroke-width:2.0px;stroke-linecap:butt;stroke-linejoin:miter;stroke-opacity:1"/>
<path class="bond-17 atom-18 atom-27" d="M 268.1,128.5 L 239.6,131.5" style="fill:none;fill-rule:evenodd;stroke:#000000;stroke-width:2.0px;stroke-linecap:butt;stroke-linejoin:miter;stroke-opacity:1"/>
<path class="bond-18 atom-19 atom-24" d="M 196.1,264.4 L 196.0,235.8" style="fill:none;fill-rule:evenodd;stroke:#000000;stroke-width:2.0px;stroke-linecap:butt;stroke-linejoin:miter;stroke-opacity:1"/>
<path class="bond-19 atom-19 atom-1" d="M 196.1,264.4 L 188.1,269.0" style="fill:none;fill-rule:evenodd;stroke:#000000;stroke-width:2.0px;stroke-linecap:butt;stroke-linejoin:miter;stroke-opacity:1"/>
<path class="bond-19 atom-19 atom-1" d="M 188.1,269.0 L 180.1,273.6" style="fill:none;fill-rule:evenodd;stroke:#FF0000;stroke-width:2.0px;stroke-linecap:butt;stroke-linejoin:miter;stroke-opacity:1"/>
<path class="bond-20 atom-20 atom-9" d="M 216.1,49.5 L 194.8,68.6" style="fill:none;fill-rule:evenodd;stroke:#000000;stroke-width:2.0px;stroke-linecap:butt;stroke-linejoin:miter;stroke-opacity:1"/>
<path class="bond-21 atom-20 atom-0" d="M 216.1,49.5 L 213.9,39.3" style="fill:none;fill-rule:evenodd;stroke:#000000;stroke-width:2.0px;stroke-linecap:butt;stroke-linejoin:miter;stroke-opacity:1"/>
<path class="bond-21 atom-20 atom-0" d="M 213.9,39.3 L 211.7,29.1" style="fill:none;fill-rule:evenodd;stroke:#00CC00;stroke-width:2.0px;stroke-linecap:butt;stroke-linejoin:miter;stroke-opacity:1"/>
<path class="bond-22 atom-21 atom-3" d="M 196.0,178.6 L 194.4,168.1" style="fill:none;fill-rule:evenodd;stroke:#000000;stroke-width:2.0px;stroke-linecap:butt;stroke-linejoin:miter;stroke-opacity:1"/>
<path class="bond-22 atom-21 atom-3" d="M 194.4,168.1 L 192.8,157.6" style="fill:none;fill-rule:evenodd;stroke:#FF0000;stroke-width:2.0px;stroke-linecap:butt;stroke-linejoin:miter;stroke-opacity:1"/>
<path class="bond-23 atom-21 atom-10" d="M 196.0,178.6 L 171.2,192.9" style="fill:none;fill-rule:evenodd;stroke:#000000;stroke-width:2.0px;stroke-linecap:butt;stroke-linejoin:miter;stroke-opacity:1"/>
<path class="bond-23 atom-21 atom-10" d="M 196.0,183.6 L 175.5,195.4" style="fill:none;fill-rule:evenodd;stroke:#000000;stroke-width:2.0px;stroke-linecap:butt;stroke-linejoin:miter;stroke-opacity:1"/>
<path class="bond-24 atom-22 atom-21" d="M 220.8,192.9 L 196.0,178.6" style="fill:none;fill-rule:evenodd;stroke:#000000;stroke-width:2.0px;stroke-linecap:butt;stroke-linejoin:miter;stroke-opacity:1"/>
<path class="bond-25 atom-23 atom-11" d="M 295.6,193.4 L 320.9,206.7" style="fill:none;fill-rule:evenodd;stroke:#000000;stroke-width:2.0px;stroke-linecap:butt;stroke-linejoin:miter;stroke-opacity:1"/>
<path class="bond-26 atom-24 atom-13" d="M 196.0,235.8 L 171.3,221.5" style="fill:none;fill-rule:evenodd;stroke:#000000;stroke-width:2.0px;stroke-linecap:butt;stroke-linejoin:miter;stroke-opacity:1"/>
<path class="bond-26 atom-24 atom-13" d="M 196.0,230.8 L 175.6,219.0" style="fill:none;fill-rule:evenodd;stroke:#000000;stroke-width:2.0px;stroke-linecap:butt;stroke-linejoin:miter;stroke-opacity:1"/>
<path class="bond-27 atom-25 atom-26" d="M 249.2,86.2 L 228.0,105.4" style="fill:none;fill-rule:evenodd;stroke:#000000;stroke-width:2.0px;stroke-linecap:butt;stroke-linejoin:miter;stroke-opacity:1"/>
<path class="bond-27 atom-25 atom-26" d="M 244.5,84.7 L 227.0,100.5" style="fill:none;fill-rule:evenodd;stroke:#000000;stroke-width:2.0px;stroke-linecap:butt;stroke-linejoin:miter;stroke-opacity:1"/>
<path class="bond-28 atom-25 atom-16" d="M 249.2,86.2 L 243.3,58.3" style="fill:none;fill-rule:evenodd;stroke:#000000;stroke-width:2.0px;stroke-linecap:butt;stroke-linejoin:miter;stroke-opacity:1"/>
<path class="bond-29 atom-26 atom-14" d="M 228.0,105.4 L 200.8,96.6" style="fill:none;fill-rule:evenodd;stroke:#000000;stroke-width:2.0px;stroke-linecap:butt;stroke-linejoin:miter;stroke-opacity:1"/>
<path class="bond-30 atom-27 atom-7" d="M 239.6,131.5 L 255.8,155.1" style="fill:none;fill-rule:evenodd;stroke:#000000;stroke-width:2.0px;stroke-linecap:butt;stroke-linejoin:miter;stroke-opacity:1"/>
<path class="bond-31 atom-27 atom-26" d="M 239.6,131.5 L 228.0,105.4" style="fill:none;fill-rule:evenodd;stroke:#000000;stroke-width:2.0px;stroke-linecap:butt;stroke-linejoin:miter;stroke-opacity:1"/>
<path d="M 269.7,201.4 L 268.3,201.8 L 267.9,201.5" style="fill:none;stroke:#000000;stroke-width:2.0px;stroke-linecap:butt;stroke-linejoin:miter;stroke-miterlimit:10;stroke-opacity:1;"/>
<path d="M 255.6,155.6 L 255.8,155.1 L 255.0,153.9" style="fill:none;stroke:#000000;stroke-width:2.0px;stroke-linecap:butt;stroke-linejoin:miter;stroke-miterlimit:10;stroke-opacity:1;"/>
<path d="M 333.6,182.7 L 334.3,181.4 L 333.0,180.8" style="fill:none;stroke:#000000;stroke-width:2.0px;stroke-linecap:butt;stroke-linejoin:miter;stroke-miterlimit:10;stroke-opacity:1;"/>
<path d="M 195.1,70.0 L 194.8,68.6 L 195.9,67.6" style="fill:none;stroke:#000000;stroke-width:2.0px;stroke-linecap:butt;stroke-linejoin:miter;stroke-miterlimit:10;stroke-opacity:1;"/>
<path d="M 171.2,194.3 L 171.2,192.9 L 172.5,192.2" style="fill:none;stroke:#000000;stroke-width:2.0px;stroke-linecap:butt;stroke-linejoin:miter;stroke-miterlimit:10;stroke-opacity:1;"/>
<path d="M 321.6,205.5 L 320.9,206.7 L 319.7,206.1" style="fill:none;stroke:#000000;stroke-width:2.0px;stroke-linecap:butt;stroke-linejoin:miter;stroke-miterlimit:10;stroke-opacity:1;"/>
<path d="M 308.3,169.4 L 309.0,168.1 L 310.2,168.8" style="fill:none;stroke:#000000;stroke-width:2.0px;stroke-linecap:butt;stroke-linejoin:miter;stroke-miterlimit:10;stroke-opacity:1;"/>
<path d="M 171.3,220.1 L 171.3,221.5 L 172.5,222.2" style="fill:none;stroke:#000000;stroke-width:2.0px;stroke-linecap:butt;stroke-linejoin:miter;stroke-miterlimit:10;stroke-opacity:1;"/>
<path d="M 200.5,95.2 L 200.8,96.6 L 202.2,97.0" style="fill:none;stroke:#000000;stroke-width:2.0px;stroke-linecap:butt;stroke-linejoin:miter;stroke-miterlimit:10;stroke-opacity:1;"/>
<path d="M 272.8,99.8 L 274.0,100.5 L 273.7,101.9" style="fill:none;stroke:#000000;stroke-width:2.0px;stroke-linecap:butt;stroke-linejoin:miter;stroke-miterlimit:10;stroke-opacity:1;"/>
<path d="M 241.9,57.8 L 243.3,58.3 L 243.6,59.7" style="fill:none;stroke:#000000;stroke-width:2.0px;stroke-linecap:butt;stroke-linejoin:miter;stroke-miterlimit:10;stroke-opacity:1;"/>
<path d="M 220.8,220.0 L 220.8,221.5 L 219.5,222.2" style="fill:none;stroke:#000000;stroke-width:2.0px;stroke-linecap:butt;stroke-linejoin:miter;stroke-miterlimit:10;stroke-opacity:1;"/>
<path d="M 268.4,127.1 L 268.1,128.5 L 266.6,128.6" style="fill:none;stroke:#000000;stroke-width:2.0px;stroke-linecap:butt;stroke-linejoin:miter;stroke-miterlimit:10;stroke-opacity:1;"/>
<path d="M 196.1,262.9 L 196.1,264.4 L 195.7,264.6" style="fill:none;stroke:#000000;stroke-width:2.0px;stroke-linecap:butt;stroke-linejoin:miter;stroke-miterlimit:10;stroke-opacity:1;"/>
<path class="atom-0" d="M 205.4 21.9 Q 205.4 18.9, 206.8 17.3 Q 208.2 15.7, 210.9 15.7 Q 213.4 15.7, 214.8 17.5 L 213.7 18.4 Q 212.7 17.1, 210.9 17.1 Q 209.1 17.1, 208.1 18.4 Q 207.2 19.6, 207.2 21.9 Q 207.2 24.3, 208.2 25.6 Q 209.2 26.8, 211.1 26.8 Q 212.5 26.8, 214.0 26.0 L 214.5 27.3 Q 213.9 27.7, 212.9 27.9 Q 212.0 28.2, 210.9 28.2 Q 208.2 28.2, 206.8 26.6 Q 205.4 24.9, 205.4 21.9 " fill="#00CC00"/>
<path class="atom-0" d="M 216.0 15.0 L 217.6 15.0 L 217.6 28.0 L 216.0 28.0 L 216.0 15.0 " fill="#00CC00"/>
<path class="atom-1" d="M 165.7 278.7 Q 165.7 275.8, 167.2 274.2 Q 168.6 272.5, 171.3 272.5 Q 174.0 272.5, 175.4 274.2 Q 176.9 275.8, 176.9 278.7 Q 176.9 281.7, 175.4 283.3 Q 174.0 285.0, 171.3 285.0 Q 168.6 285.0, 167.2 283.3 Q 165.7 281.7, 165.7 278.7 M 171.3 283.6 Q 173.2 283.6, 174.2 282.4 Q 175.2 281.1, 175.2 278.7 Q 175.2 276.3, 174.2 275.1 Q 173.2 273.9, 171.3 273.9 Q 169.5 273.9, 168.4 275.1 Q 167.5 276.3, 167.5 278.7 Q 167.5 281.2, 168.4 282.4 Q 169.5 283.6, 171.3 283.6 " fill="#FF0000"/>
<path class="atom-1" d="M 178.6 274.5 L 182.8 274.5 L 182.8 275.4 L 178.6 275.4 L 178.6 274.5 " fill="#FF0000"/>
<path class="atom-2" d="M 215.2 278.7 Q 215.2 275.8, 216.7 274.1 Q 218.1 272.5, 220.8 272.5 Q 223.5 272.5, 225.0 274.1 Q 226.4 275.8, 226.4 278.7 Q 226.4 281.6, 224.9 283.3 Q 223.5 285.0, 220.8 285.0 Q 218.1 285.0, 216.7 283.3 Q 215.2 281.6, 215.2 278.7 M 220.8 283.6 Q 222.7 283.6, 223.7 282.4 Q 224.7 281.1, 224.7 278.7 Q 224.7 276.3, 223.7 275.1 Q 222.7 273.9, 220.8 273.9 Q 219.0 273.9, 218.0 275.1 Q 217.0 276.3, 217.0 278.7 Q 217.0 281.1, 218.0 282.4 Q 219.0 283.6, 220.8 283.6 " fill="#FF0000"/>
<path class="atom-3" d="M 186.1 150.4 Q 186.1 147.5, 187.6 145.8 Q 189.0 144.2, 191.7 144.2 Q 194.4 144.2, 195.8 145.8 Q 197.3 147.5, 197.3 150.4 Q 197.3 153.3, 195.8 155.0 Q 194.4 156.7, 191.7 156.7 Q 189.0 156.7, 187.6 155.0 Q 186.1 153.3, 186.1 150.4 M 191.7 155.3 Q 193.6 155.3, 194.6 154.1 Q 195.6 152.8, 195.6 150.4 Q 195.6 148.0, 194.6 146.8 Q 193.6 145.6, 191.7 145.6 Q 189.9 145.6, 188.8 146.8 Q 187.8 148.0, 187.8 150.4 Q 187.8 152.8, 188.8 154.1 Q 189.9 155.3, 191.7 155.3 " fill="#FF0000"/>
<path class="atom-4" d="M 244.7 176.3 L 248.7 182.8 Q 249.0 183.4, 249.7 184.6 Q 250.3 185.7, 250.4 185.8 L 250.4 176.3 L 252.0 176.3 L 252.0 188.5 L 250.3 188.5 L 246.0 181.4 Q 245.5 180.6, 245.0 179.7 Q 244.5 178.7, 244.3 178.4 L 244.3 188.5 L 242.8 188.5 L 242.8 176.3 L 244.7 176.3 " fill="#0000FF"/>
</svg>