<svg xmlns="http://www.w3.org/2000/svg" xmlns:rdkit="http://www.rdkit.org/xml" xmlns:xlink="http://www.w3.org/1999/xlink" version="1.1" baseProfile="full" xml:space="preserve" width="1600px" height="200px" viewBox="0 0 1600 200">
<!-- END OF HEADER -->
<rect style="opacity:1.0;fill:#FFFFFF;stroke:none" width="400.0" height="200.0" x="0.0" y="0.0"> </rect>
<path class="bond-0 atom-3 atom-5" d="M 168.9,87.0 L 172.8,82.8" style="fill:none;fill-rule:evenodd;stroke:#FF0000;stroke-width:2.0px;stroke-linecap:butt;stroke-linejoin:miter;stroke-opacity:1"/>
<path class="bond-0 atom-3 atom-5" d="M 172.8,82.8 L 176.7,78.6" style="fill:none;fill-rule:evenodd;stroke:#000000;stroke-width:2.0px;stroke-linecap:butt;stroke-linejoin:miter;stroke-opacity:1"/>
<path class="bond-1 atom-4 atom-6" d="M 201.7,113.5 L 206.4,117.8" style="fill:none;fill-rule:evenodd;stroke:#0000FF;stroke-width:2.0px;stroke-linecap:butt;stroke-linejoin:miter;stroke-opacity:1"/>
<path class="bond-1 atom-4 atom-6" d="M 206.4,117.8 L 211.0,122.1" style="fill:none;fill-rule:evenodd;stroke:#000000;stroke-width:2.0px;stroke-linecap:butt;stroke-linejoin:miter;stroke-opacity:1"/>
<path class="bond-2 atom-4 atom-7" d="M 199.7,106.2 L 201.6,100.1" style="fill:none;fill-rule:evenodd;stroke:#0000FF;stroke-width:2.0px;stroke-linecap:butt;stroke-linejoin:miter;stroke-opacity:1"/>
<path class="bond-2 atom-4 atom-7" d="M 201.6,100.1 L 203.5,94.1" style="fill:none;fill-rule:evenodd;stroke:#000000;stroke-width:2.0px;stroke-linecap:butt;stroke-linejoin:miter;stroke-opacity:1"/>
<path class="bond-3 atom-8 atom-11" d="M 250.6,109.9 L 235.4,101.9" style="fill:none;fill-rule:evenodd;stroke:#000000;stroke-width:2.0px;stroke-linecap:butt;stroke-linejoin:miter;stroke-opacity:1"/>
<path class="bond-4 atom-8 atom-12" d="M 250.6,109.9 L 242.6,125.0" style="fill:none;fill-rule:evenodd;stroke:#000000;stroke-width:2.0px;stroke-linecap:butt;stroke-linejoin:miter;stroke-opacity:1"/>
<path class="bond-5 atom-10 atom-13" d="M 152.7,116.7 L 152.8,133.9" style="fill:none;fill-rule:evenodd;stroke:#000000;stroke-width:2.0px;stroke-linecap:butt;stroke-linejoin:miter;stroke-opacity:1"/>
<path class="bond-6 atom-9 atom-14" d="M 166.9,42.2 L 170.5,58.9" style="fill:none;fill-rule:evenodd;stroke:#000000;stroke-width:2.0px;stroke-linecap:butt;stroke-linejoin:miter;stroke-opacity:1"/>
<path class="bond-6 atom-9 atom-14" d="M 169.7,43.1 L 172.7,57.0" style="fill:none;fill-rule:evenodd;stroke:#000000;stroke-width:2.0px;stroke-linecap:butt;stroke-linejoin:miter;stroke-opacity:1"/>
<path class="bond-7 atom-15 atom-18" d="M 214.4,61.3 L 210.8,78.1" style="fill:none;fill-rule:evenodd;stroke:#000000;stroke-width:2.0px;stroke-linecap:butt;stroke-linejoin:miter;stroke-opacity:1"/>
<path class="bond-8 atom-1 atom-19" d="M 177.9,167.0 L 172.1,163.7" style="fill:none;fill-rule:evenodd;stroke:#FF0000;stroke-width:2.0px;stroke-linecap:butt;stroke-linejoin:miter;stroke-opacity:1"/>
<path class="bond-8 atom-1 atom-19" d="M 172.1,163.7 L 166.3,160.4" style="fill:none;fill-rule:evenodd;stroke:#000000;stroke-width:2.0px;stroke-linecap:butt;stroke-linejoin:miter;stroke-opacity:1"/>
<path class="bond-8 atom-1 atom-19" d="M 179.2,164.8 L 173.4,161.5" style="fill:none;fill-rule:evenodd;stroke:#FF0000;stroke-width:2.0px;stroke-linecap:butt;stroke-linejoin:miter;stroke-opacity:1"/>
<path class="bond-8 atom-1 atom-19" d="M 173.4,161.5 L 167.6,158.1" style="fill:none;fill-rule:evenodd;stroke:#000000;stroke-width:2.0px;stroke-linecap:butt;stroke-linejoin:miter;stroke-opacity:1"/>
<path class="bond-9 atom-2 atom-19" d="M 158.1,165.1 L 162.9,162.4" style="fill:none;fill-rule:evenodd;stroke:#FF0000;stroke-width:2.0px;stroke-linecap:butt;stroke-linejoin:miter;stroke-opacity:1"/>
<path class="bond-9 atom-2 atom-19" d="M 162.9,162.4 L 167.6,159.6" style="fill:none;fill-rule:evenodd;stroke:#000000;stroke-width:2.0px;stroke-linecap:butt;stroke-linejoin:miter;stroke-opacity:1"/>
<path class="bond-10 atom-0 atom-20" d="M 177.0,18.5 L 178.3,24.6" style="fill:none;fill-rule:evenodd;stroke:#00CC00;stroke-width:2.0px;stroke-linecap:butt;stroke-linejoin:miter;stroke-opacity:1"/>
<path class="bond-10 atom-0 atom-20" d="M 178.3,24.6 L 179.6,30.7" style="fill:none;fill-rule:evenodd;stroke:#000000;stroke-width:2.0px;stroke-linecap:butt;stroke-linejoin:miter;stroke-opacity:1"/>
<path class="bond-11 atom-9 atom-20" d="M 166.9,42.2 L 179.6,30.7" style="fill:none;fill-rule:evenodd;stroke:#000000;stroke-width:2.0px;stroke-linecap:butt;stroke-linejoin:miter;stroke-opacity:1"/>
<path class="bond-12 atom-16 atom-20" d="M 196.0,36.0 L 179.6,30.7" style="fill:none;fill-rule:evenodd;stroke:#000000;stroke-width:2.0px;stroke-linecap:butt;stroke-linejoin:miter;stroke-opacity:1"/>
<path class="bond-12 atom-16 atom-20" d="M 193.7,38.0 L 180.3,33.6" style="fill:none;fill-rule:evenodd;stroke:#000000;stroke-width:2.0px;stroke-linecap:butt;stroke-linejoin:miter;stroke-opacity:1"/>
<path class="bond-13 atom-3 atom-21" d="M 165.7,95.6 L 166.6,101.9" style="fill:none;fill-rule:evenodd;stroke:#FF0000;stroke-width:2.0px;stroke-linecap:butt;stroke-linejoin:miter;stroke-opacity:1"/>
<path class="bond-13 atom-3 atom-21" d="M 166.6,101.9 L 167.6,108.2" style="fill:none;fill-rule:evenodd;stroke:#000000;stroke-width:2.0px;stroke-linecap:butt;stroke-linejoin:miter;stroke-opacity:1"/>
<path class="bond-14 atom-10 atom-21" d="M 152.7,116.7 L 167.6,108.2" style="fill:none;fill-rule:evenodd;stroke:#000000;stroke-width:2.0px;stroke-linecap:butt;stroke-linejoin:miter;stroke-opacity:1"/>
<path class="bond-14 atom-10 atom-21" d="M 155.3,118.2 L 167.6,111.1" style="fill:none;fill-rule:evenodd;stroke:#000000;stroke-width:2.0px;stroke-linecap:butt;stroke-linejoin:miter;stroke-opacity:1"/>
<path class="bond-15 atom-4 atom-22" d="M 195.1,111.8 L 188.8,114.2" style="fill:none;fill-rule:evenodd;stroke:#0000FF;stroke-width:2.0px;stroke-linecap:butt;stroke-linejoin:miter;stroke-opacity:1"/>
<path class="bond-15 atom-4 atom-22" d="M 188.8,114.2 L 182.5,116.7" style="fill:none;fill-rule:evenodd;stroke:#000000;stroke-width:2.0px;stroke-linecap:butt;stroke-linejoin:miter;stroke-opacity:1"/>
<path class="bond-16 atom-17 atom-22" d="M 182.5,133.9 L 182.5,116.7" style="fill:none;fill-rule:evenodd;stroke:#000000;stroke-width:2.0px;stroke-linecap:butt;stroke-linejoin:miter;stroke-opacity:1"/>
<path class="bond-16 atom-17 atom-22" d="M 179.9,132.4 L 179.9,118.2" style="fill:none;fill-rule:evenodd;stroke:#000000;stroke-width:2.0px;stroke-linecap:butt;stroke-linejoin:miter;stroke-opacity:1"/>
<path class="bond-17 atom-21 atom-22" d="M 167.6,108.2 L 182.5,116.7" style="fill:none;fill-rule:evenodd;stroke:#000000;stroke-width:2.0px;stroke-linecap:butt;stroke-linejoin:miter;stroke-opacity:1"/>
<path class="bond-18 atom-6 atom-23" d="M 211.0,122.1 L 227.4,117.0" style="fill:none;fill-rule:evenodd;stroke:#000000;stroke-width:2.0px;stroke-linecap:butt;stroke-linejoin:miter;stroke-opacity:1"/>
<path class="bond-19 atom-11 atom-23" d="M 235.4,101.9 L 227.4,117.0" style="fill:none;fill-rule:evenodd;stroke:#000000;stroke-width:2.0px;stroke-linecap:butt;stroke-linejoin:miter;stroke-opacity:1"/>
<path class="bond-20 atom-12 atom-23" d="M 242.6,125.0 L 227.4,117.0" style="fill:none;fill-rule:evenodd;stroke:#000000;stroke-width:2.0px;stroke-linecap:butt;stroke-linejoin:miter;stroke-opacity:1"/>
<path class="bond-21 atom-13 atom-24" d="M 152.8,133.9 L 167.6,142.5" style="fill:none;fill-rule:evenodd;stroke:#000000;stroke-width:2.0px;stroke-linecap:butt;stroke-linejoin:miter;stroke-opacity:1"/>
<path class="bond-21 atom-13 atom-24" d="M 155.3,132.4 L 167.6,139.5" style="fill:none;fill-rule:evenodd;stroke:#000000;stroke-width:2.0px;stroke-linecap:butt;stroke-linejoin:miter;stroke-opacity:1"/>
<path class="bond-22 atom-17 atom-24" d="M 182.5,133.9 L 167.6,142.5" style="fill:none;fill-rule:evenodd;stroke:#000000;stroke-width:2.0px;stroke-linecap:butt;stroke-linejoin:miter;stroke-opacity:1"/>
<path class="bond-23 atom-19 atom-24" d="M 167.6,159.6 L 167.6,142.5" style="fill:none;fill-rule:evenodd;stroke:#000000;stroke-width:2.0px;stroke-linecap:butt;stroke-linejoin:miter;stroke-opacity:1"/>
<path class="bond-24 atom-15 atom-25" d="M 214.4,61.3 L 199.5,52.7" style="fill:none;fill-rule:evenodd;stroke:#000000;stroke-width:2.0px;stroke-linecap:butt;stroke-linejoin:miter;stroke-opacity:1"/>
<path class="bond-25 atom-16 atom-25" d="M 196.0,36.0 L 199.5,52.7" style="fill:none;fill-rule:evenodd;stroke:#000000;stroke-width:2.0px;stroke-linecap:butt;stroke-linejoin:miter;stroke-opacity:1"/>
<path class="bond-26 atom-14 atom-26" d="M 170.5,58.9 L 186.8,64.2" style="fill:none;fill-rule:evenodd;stroke:#000000;stroke-width:2.0px;stroke-linecap:butt;stroke-linejoin:miter;stroke-opacity:1"/>
<path class="bond-27 atom-25 atom-26" d="M 199.5,52.7 L 186.8,64.2" style="fill:none;fill-rule:evenodd;stroke:#000000;stroke-width:2.0px;stroke-linecap:butt;stroke-linejoin:miter;stroke-opacity:1"/>
<path class="bond-27 atom-25 atom-26" d="M 196.7,51.8 L 186.2,61.3" style="fill:none;fill-rule:evenodd;stroke:#000000;stroke-width:2.0px;stroke-linecap:butt;stroke-linejoin:miter;stroke-opacity:1"/>
<path class="bond-28 atom-27 atom-5" d="M 190.4,79.3 L 190.3,80.0" style="fill:none;fill-rule:evenodd;stroke:#000000;stroke-width:1.0px;stroke-linecap:butt;stroke-linejoin:miter;stroke-opacity:1"/>
<path class="bond-28 atom-27 atom-5" d="M 187.0,78.7 L 186.9,80.0" style="fill:none;fill-rule:evenodd;stroke:#000000;stroke-width:1.0px;stroke-linecap:butt;stroke-linejoin:miter;stroke-opacity:1"/>
<path class="bond-28 atom-27 atom-5" d="M 183.6,78.2 L 183.5,80.1" style="fill:none;fill-rule:evenodd;stroke:#000000;stroke-width:1.0px;stroke-linecap:butt;stroke-linejoin:miter;stroke-opacity:1"/>
<path class="bond-28 atom-27 atom-5" d="M 180.2,77.6 L 180.0,80.2" style="fill:none;fill-rule:evenodd;stroke:#000000;stroke-width:1.0px;stroke-linecap:butt;stroke-linejoin:miter;stroke-opacity:1"/>
<path class="bond-29 atom-7 atom-27" d="M 203.5,94.1 L 193.8,79.9" style="fill:none;fill-rule:evenodd;stroke:#000000;stroke-width:2.0px;stroke-linecap:butt;stroke-linejoin:miter;stroke-opacity:1"/>
<path class="bond-30 atom-18 atom-27" d="M 210.8,78.1 L 193.8,79.9" style="fill:none;fill-rule:evenodd;stroke:#000000;stroke-width:2.0px;stroke-linecap:butt;stroke-linejoin:miter;stroke-opacity:1"/>
<path class="bond-31 atom-26 atom-27" d="M 186.8,64.2 L 193.8,79.9" style="fill:none;fill-rule:evenodd;stroke:#000000;stroke-width:2.0px;stroke-linecap:butt;stroke-linejoin:miter;stroke-opacity:1"/>
<path d="M 210.8,121.9 L 211.0,122.1 L 211.8,121.8" style="fill:none;stroke:#000000;stroke-width:2.0px;stroke-linecap:butt;stroke-linejoin:miter;stroke-miterlimit:10;stroke-opacity:1;"/>
<path d="M 203.4,94.4 L 203.5,94.1 L 203.0,93.3" style="fill:none;stroke:#000000;stroke-width:2.0px;stroke-linecap:butt;stroke-linejoin:miter;stroke-miterlimit:10;stroke-opacity:1;"/>
<path d="M 249.8,109.5 L 250.6,109.9 L 250.2,110.6" style="fill:none;stroke:#000000;stroke-width:2.0px;stroke-linecap:butt;stroke-linejoin:miter;stroke-miterlimit:10;stroke-opacity:1;"/>
<path d="M 167.1,43.0 L 166.9,42.2 L 167.5,41.6" style="fill:none;stroke:#000000;stroke-width:2.0px;stroke-linecap:butt;stroke-linejoin:miter;stroke-miterlimit:10;stroke-opacity:1;"/>
<path d="M 152.7,117.6 L 152.7,116.7 L 153.5,116.3" style="fill:none;stroke:#000000;stroke-width:2.0px;stroke-linecap:butt;stroke-linejoin:miter;stroke-miterlimit:10;stroke-opacity:1;"/>
<path d="M 236.1,102.3 L 235.4,101.9 L 235.0,102.6" style="fill:none;stroke:#000000;stroke-width:2.0px;stroke-linecap:butt;stroke-linejoin:miter;stroke-miterlimit:10;stroke-opacity:1;"/>
<path d="M 243.0,124.3 L 242.6,125.0 L 241.8,124.6" style="fill:none;stroke:#000000;stroke-width:2.0px;stroke-linecap:butt;stroke-linejoin:miter;stroke-miterlimit:10;stroke-opacity:1;"/>
<path d="M 152.8,133.0 L 152.8,133.9 L 153.5,134.3" style="fill:none;stroke:#000000;stroke-width:2.0px;stroke-linecap:butt;stroke-linejoin:miter;stroke-miterlimit:10;stroke-opacity:1;"/>
<path d="M 170.3,58.1 L 170.5,58.9 L 171.3,59.2" style="fill:none;stroke:#000000;stroke-width:2.0px;stroke-linecap:butt;stroke-linejoin:miter;stroke-miterlimit:10;stroke-opacity:1;"/>
<path d="M 214.2,62.1 L 214.4,61.3 L 213.7,60.9" style="fill:none;stroke:#000000;stroke-width:2.0px;stroke-linecap:butt;stroke-linejoin:miter;stroke-miterlimit:10;stroke-opacity:1;"/>
<path d="M 195.1,35.7 L 196.0,36.0 L 196.1,36.8" style="fill:none;stroke:#000000;stroke-width:2.0px;stroke-linecap:butt;stroke-linejoin:miter;stroke-miterlimit:10;stroke-opacity:1;"/>
<path d="M 182.5,133.0 L 182.5,133.9 L 181.7,134.3" style="fill:none;stroke:#000000;stroke-width:2.0px;stroke-linecap:butt;stroke-linejoin:miter;stroke-miterlimit:10;stroke-opacity:1;"/>
<path d="M 211.0,77.2 L 210.8,78.1 L 210.0,78.2" style="fill:none;stroke:#000000;stroke-width:2.0px;stroke-linecap:butt;stroke-linejoin:miter;stroke-miterlimit:10;stroke-opacity:1;"/>
<path d="M 167.4,159.8 L 167.6,159.6 L 167.6,158.8" style="fill:none;stroke:#000000;stroke-width:2.0px;stroke-linecap:butt;stroke-linejoin:miter;stroke-miterlimit:10;stroke-opacity:1;"/>
<path class="atom-0" d="M 173.3 14.2 Q 173.3 12.3, 174.1 11.4 Q 174.9 10.4, 176.6 10.4 Q 178.1 10.4, 178.9 11.5 L 178.2 12.1 Q 177.6 11.3, 176.6 11.3 Q 175.5 11.3, 174.9 12.0 Q 174.3 12.8, 174.3 14.2 Q 174.3 15.6, 174.9 16.3 Q 175.5 17.1, 176.7 17.1 Q 177.5 17.1, 178.4 16.6 L 178.7 17.4 Q 178.3 17.6, 177.7 17.8 Q 177.2 17.9, 176.5 17.9 Q 174.9 17.9, 174.1 16.9 Q 173.3 16.0, 173.3 14.2 " fill="#00CC00"/>
<path class="atom-0" d="M 179.6 10.0 L 180.6 10.0 L 180.6 17.8 L 179.6 17.8 L 179.6 10.0 " fill="#00CC00"/>
<path class="atom-1" d="M 179.1 168.2 Q 179.1 166.5, 180.0 165.5 Q 180.9 164.5, 182.5 164.5 Q 184.1 164.5, 185.0 165.5 Q 185.8 166.5, 185.8 168.2 Q 185.8 170.0, 185.0 171.0 Q 184.1 172.0, 182.5 172.0 Q 180.9 172.0, 180.0 171.0 Q 179.1 170.0, 179.1 168.2 M 182.5 171.2 Q 183.6 171.2, 184.2 170.4 Q 184.8 169.7, 184.8 168.2 Q 184.8 166.8, 184.2 166.1 Q 183.6 165.3, 182.5 165.3 Q 181.4 165.3, 180.8 166.0 Q 180.2 166.8, 180.2 168.2 Q 180.2 169.7, 180.8 170.4 Q 181.4 171.2, 182.5 171.2 " fill="#FF0000"/>
<path class="atom-2" d="M 149.4 168.2 Q 149.4 166.5, 150.3 165.5 Q 151.2 164.5, 152.8 164.5 Q 154.4 164.5, 155.3 165.5 Q 156.1 166.5, 156.1 168.2 Q 156.1 170.0, 155.3 171.0 Q 154.4 172.0, 152.8 172.0 Q 151.2 172.0, 150.3 171.0 Q 149.4 170.0, 149.4 168.2 M 152.8 171.2 Q 153.9 171.2, 154.5 170.4 Q 155.1 169.7, 155.1 168.2 Q 155.1 166.8, 154.5 166.1 Q 153.9 165.3, 152.8 165.3 Q 151.7 165.3, 151.1 166.1 Q 150.5 166.8, 150.5 168.2 Q 150.5 169.7, 151.1 170.4 Q 151.7 171.2, 152.8 171.2 " fill="#FF0000"/>
<path class="atom-2" d="M 157.2 165.7 L 159.7 165.7 L 159.7 166.3 L 157.2 166.3 L 157.2 165.7 " fill="#FF0000"/>
<path class="atom-3" d="M 161.7 91.2 Q 161.7 89.5, 162.5 88.5 Q 163.4 87.5, 165.0 87.5 Q 166.6 87.5, 167.5 88.5 Q 168.4 89.5, 168.4 91.2 Q 168.4 93.0, 167.5 94.0 Q 166.6 95.0, 165.0 95.0 Q 163.4 95.0, 162.5 94.0 Q 161.7 93.0, 161.7 91.2 M 165.0 94.2 Q 166.1 94.2, 166.7 93.4 Q 167.3 92.7, 167.3 91.2 Q 167.3 89.8, 166.7 89.1 Q 166.1 88.3, 165.0 88.3 Q 163.9 88.3, 163.3 89.1 Q 162.7 89.8, 162.7 91.2 Q 162.7 92.7, 163.3 93.4 Q 163.9 94.2, 165.0 94.2 " fill="#FF0000"/>
<path class="atom-4" d="M 196.8 106.8 L 199.2 110.7 Q 199.4 111.0, 199.8 111.7 Q 200.2 112.4, 200.2 112.5 L 200.2 106.8 L 201.2 106.8 L 201.2 114.1 L 200.2 114.1 L 197.6 109.9 Q 197.3 109.4, 197.0 108.8 Q 196.7 108.2, 196.6 108.1 L 196.6 114.1 L 195.7 114.1 L 195.7 106.8 L 196.8 106.8 " fill="#0000FF"/>
<path class="legend" d="M 159.6 178.5 L 159.6 186.2 Q 159.6 187.4, 160.4 188.0 Q 161.1 188.6, 162.5 188.6 Q 163.9 188.6, 164.7 188.1 Q 165.4 187.5, 165.4 186.2 L 165.4 178.5 L 167.0 178.5 L 167.0 186.2 Q 167.0 188.0, 165.9 189.0 Q 164.7 190.0, 162.5 190.0 Q 160.3 190.0, 159.2 189.0 Q 158.1 188.0, 158.1 186.2 L 158.1 178.5 L 159.6 178.5 " fill="#000000"/>
<path class="legend" d="M 170.8 178.5 L 174.5 184.5 Q 174.9 185.1, 175.5 186.2 Q 176.0 187.2, 176.1 187.3 L 176.1 178.5 L 177.6 178.5 L 177.6 189.8 L 176.0 189.8 L 172.0 183.3 Q 171.6 182.5, 171.1 181.6 Q 170.6 180.8, 170.5 180.5 L 170.5 189.8 L 169.0 189.8 L 169.0 178.5 L 170.8 178.5 " fill="#000000"/>
<path class="legend" d="M 179.7 178.5 L 181.2 178.5 L 181.2 189.8 L 179.7 189.8 L 179.7 178.5 M 186.0 178.5 L 188.1 178.5 L 183.6 183.7 L 188.4 189.8 L 186.4 189.8 L 181.6 183.7 L 186.0 178.5 " fill="#000000"/>
<path class="legend" d="M 195.1 183.8 Q 196.1 184.3, 196.7 185.0 Q 197.3 185.6, 197.3 186.7 Q 197.3 187.7, 196.8 188.4 Q 196.3 189.2, 195.4 189.6 Q 194.5 190.0, 193.4 190.0 Q 191.5 190.0, 190.4 189.1 Q 189.3 188.3, 189.3 186.7 Q 189.3 185.8, 189.8 185.1 Q 190.3 184.4, 191.3 183.9 Q 190.5 183.5, 190.1 182.9 Q 189.7 182.2, 189.7 181.3 Q 189.7 180.0, 190.7 179.2 Q 191.7 178.4, 193.3 178.4 Q 195.0 178.4, 195.9 179.2 Q 196.9 180.0, 196.9 181.3 Q 196.9 182.1, 196.4 182.7 Q 196.0 183.3, 195.1 183.8 M 193.3 179.6 Q 192.4 179.6, 191.8 180.0 Q 191.3 180.5, 191.3 181.3 Q 191.3 181.9, 191.7 182.3 Q 192.0 182.7, 192.5 182.9 Q 193.0 183.1, 194.0 183.4 Q 194.7 183.0, 195.0 182.4 Q 195.3 181.9, 195.3 181.3 Q 195.3 180.5, 194.8 180.0 Q 194.2 179.6, 193.3 179.6 M 193.4 188.8 Q 194.4 188.8, 195.1 188.2 Q 195.7 187.7, 195.7 186.7 Q 195.7 186.1, 195.4 185.7 Q 195.0 185.3, 194.5 185.1 Q 194.0 184.9, 193.1 184.6 L 192.4 184.4 Q 191.6 184.8, 191.3 185.4 Q 190.9 186.0, 190.9 186.7 Q 190.9 187.7, 191.6 188.2 Q 192.2 188.8, 193.4 188.8 " fill="#000000"/>
<path class="legend" d="M 203.2 190.0 Q 201.2 190.0, 200.1 188.4 Q 199.1 186.9, 199.1 184.2 Q 199.1 181.4, 200.1 179.9 Q 201.1 178.4, 203.2 178.4 Q 205.3 178.4, 206.4 179.9 Q 207.4 181.4, 207.4 184.2 Q 207.4 186.9, 206.3 188.4 Q 205.3 190.0, 203.2 190.0 M 203.2 188.7 Q 204.5 188.7, 205.1 187.6 Q 205.8 186.4, 205.8 184.2 Q 205.8 181.9, 205.1 180.8 Q 204.5 179.7, 203.2 179.7 Q 202.0 179.7, 201.4 180.8 Q 200.7 181.9, 200.7 184.2 Q 200.7 186.4, 201.4 187.6 Q 202.0 188.7, 203.2 188.7 " fill="#000000"/>
<path class="legend" d="M 215.1 179.8 L 209.2 179.8 L 209.2 178.5 L 216.7 178.5 L 216.7 179.6 L 212.2 189.8 L 210.6 189.8 L 215.1 179.8 " fill="#000000"/>
<path class="legend" d="M 225.3 186.0 L 226.7 186.0 L 226.7 187.2 L 225.3 187.2 L 225.3 189.8 L 223.8 189.8 L 223.8 187.2 L 218.0 187.2 L 218.0 186.2 L 222.9 178.5 L 225.3 178.5 L 225.3 186.0 M 219.8 186.0 L 223.8 186.0 L 223.8 179.5 L 219.8 186.0 " fill="#000000"/>
<path class="legend" d="M 228.3 188.2 L 229.9 188.2 L 229.9 189.8 L 228.3 189.8 L 228.3 188.2 " fill="#000000"/>
<path class="legend" d="M 241.9 189.8 L 240.1 189.8 L 236.8 185.2 L 233.4 189.8 L 231.7 189.8 L 235.9 183.9 L 232.0 178.5 L 233.8 178.5 L 236.8 182.8 L 239.9 178.5 L 241.7 178.5 L 237.7 184.0 L 241.9 189.8 " fill="#000000"/>
</svg>